<svg width="276" height="97" viewBox="0 0 276 97" fill="none" xmlns="http://www.w3.org/2000/svg">
<g clip-path="url(#clip0_0_709)">
<path d="M229.917 30.1345L226.5 18.9824H225.124V17.4163H229.751V18.9824H228.398L230.937 27.9516L234.283 17.4163H236.134L239.48 27.9041L241.995 18.9824H240.666V17.4163H245.27V18.9824H243.87L240.477 30.1345H238.555L235.209 19.7891L231.839 30.1345H229.917Z" fill="white"/>
<mask id="mask0_0_709" style="mask-type:luminance" maskUnits="userSpaceOnUse" x="0" y="0" width="276" height="97">
<path d="M276 0H0V97H276V0Z" fill="white"/>
</mask>
<g mask="url(#mask0_0_709)">
<path d="M249.328 11.8403C250.135 11.8403 250.609 12.386 250.609 13.0504C250.609 13.7148 250.158 14.2368 249.328 14.2368C248.497 14.2368 248.094 13.691 248.094 13.0504C248.094 12.4097 248.521 11.8403 249.328 11.8403ZM246.741 17.4163H250.277V28.5685H251.986V30.1108H246.741V28.5685H248.426V18.9587H246.741V17.4163Z" fill="white"/>
<path d="M253.314 17.4163H255.403V14.308H257.254V17.4163H260.41V18.9587H257.254V26.3855C257.254 28.2363 258.013 28.782 259.105 28.782C259.769 28.782 260.077 28.7109 260.671 28.521L260.908 29.9922C260.196 30.2532 259.721 30.3718 258.962 30.3718C256.565 30.3718 255.403 29.1854 255.403 26.1957V18.9587H253.314V17.4163Z" fill="white"/>
<path d="M276 30.1345H272.441V22.8738C272.441 20.24 271.349 18.84 269.356 18.84C267.576 18.84 265.701 19.9315 265.701 22.9924V28.5922H267.41V30.1345H262.166V28.5922H263.85V13.4063H262.166V11.864H265.725V19.4332C266.461 18.1282 267.837 17.1553 269.735 17.1553C272.725 17.1553 274.315 19.2908 274.315 22.8263V28.6159H276V30.1583V30.1345Z" fill="white"/>
<path d="M67.6533 60.9097C64.0701 50.5406 53.8664 42.7578 40.9337 32.887C36.6149 29.5888 32.1537 26.1957 27.5264 22.3755L24.7501 20.0976L23.9907 23.6093C22.7093 29.4939 21.3092 34.9039 19.9567 40.1715C19.5058 41.9273 19.0549 43.6358 18.6515 45.2967C19.8143 46.3645 21.072 47.456 22.3771 48.5474C22.9703 46.1984 23.5636 43.8018 24.228 41.263C25.3196 37.0156 26.4586 32.6497 27.5264 28.0227C31.252 31.0125 34.8114 33.7412 38.2997 36.3987C50.6391 45.795 60.3683 53.2456 63.5244 62.3571C67.6296 74.2449 61.3175 87.2478 49.4527 91.3527C46.9848 92.2069 44.4932 92.6103 42.0015 92.6103C32.5571 92.6103 23.7059 86.6783 20.4312 77.282C18.96 73.0584 18.8888 68.1942 19.5532 62.7368C18.1769 61.669 16.8481 60.6013 15.5667 59.5572C14.4276 66.6994 14.309 73.0347 16.2786 78.7294C20.1702 89.9528 30.7299 97.0237 42.0015 97.0237C44.944 97.0237 47.934 96.5491 50.8764 95.5288C65.0431 90.6171 72.5891 75.0991 67.6771 60.9334" fill="#1BBCEF"/>
<path d="M68.8636 29.3278V33.3615C70.406 33.7649 72.1145 33.931 73.5383 33.931C76.9554 33.931 79.2097 32.7446 79.2097 29.6125C79.2097 22.9212 64.4736 26.5042 64.4736 16.5384C64.4736 10.4166 69.1246 8.42343 73.8943 8.42343C77.7147 8.42343 81.2742 9.39628 83.2912 10.5352V16.8469H78.8538V13.1453C77.43 12.7419 75.8876 12.4572 74.0841 12.4572C71.2365 12.4572 69.4094 13.4775 69.4094 16.0876C69.4094 22.328 84.1455 18.6976 84.1455 29.0905C84.1455 35.5682 79.2097 37.941 73.301 37.941C69.8365 37.941 66.0872 37.2529 64.3787 36.3987V29.3515H68.8636V29.3278Z" fill="#1BBCEF"/>
</g>
<path d="M109.465 29.1617L109.062 37.4428H87.9897V33.4565H90.8135V12.9318H87.9897V8.92172H108.943V16.2537H104.197V12.9318H96.1052V20.9518H104.861V25.2228H96.1052V33.4565H104.506L104.695 29.1617H109.465Z" fill="#1BBCEF"/>
<path d="M121.994 26.0771H129.564L125.791 15.091L121.994 26.0771ZM121.71 37.4428H111.435V33.4565H114.069L123.205 8.94545H128.33L137.419 33.4565H140.1V37.4428H129.825V33.4565H132.056L130.869 30.0871H120.594L119.408 33.4565H121.638V37.4428H121.71Z" fill="#1BBCEF"/>
<path d="M163.142 29.1617L162.738 37.4428H142.521V33.4565H145.344V12.9318H142.521V8.92172H154.267V12.9318H150.636V33.4565H158.206L158.419 29.138L163.142 29.1617Z" fill="#1BBCEF"/>
<path d="M187.298 29.1617L186.871 37.4428H165.823V33.4565H168.623V12.9318H165.823V8.92172H186.753V16.2537H182.03V12.9318H173.939V20.9518H182.695V25.2228H173.939V33.4565H182.315L182.529 29.1617H187.298Z" fill="#1BBCEF"/>
<mask id="mask1_0_709" style="mask-type:luminance" maskUnits="userSpaceOnUse" x="0" y="0" width="276" height="97">
<path d="M276 0H0V97H276V0Z" fill="white"/>
</mask>
<g mask="url(#mask1_0_709)">
<path d="M199.14 12.9318V33.4565H201.868C209.153 33.4565 211.645 29.138 211.645 23.1111C211.645 17.7248 209.035 12.9318 201.821 12.9318H199.14ZM191.024 33.4565H193.824V12.9318H191.024V8.94545H201.821C212.286 8.94545 217.34 14.6164 217.34 23.1111C217.34 32.6497 212.333 37.4428 201.868 37.4428H191.024V33.4565Z" fill="#1BBCEF"/>
<path d="M81.9386 69.7128V73.7466C83.481 74.1499 85.1896 74.316 86.6133 74.316C90.0304 74.316 92.2847 73.1296 92.2847 69.9975C92.2847 63.3063 77.5249 66.8892 77.5249 56.9234C77.5249 50.8016 82.1759 48.8085 86.9456 48.8085C90.766 48.8085 94.3255 49.7813 96.3662 50.9202V57.2319H91.9288V53.5303C90.505 53.1269 88.9626 52.8422 87.1591 52.8422C84.3116 52.8422 82.4844 53.8625 82.4844 56.4726C82.4844 62.7131 97.2442 59.0827 97.2442 69.4755C97.2442 75.9533 92.3085 78.3261 86.3998 78.3261C82.9352 78.3261 79.186 77.638 77.4774 76.7838V69.7365H81.9623L81.9386 69.7128Z" fill="white"/>
<path d="M123.845 74.9092C121.567 77.021 118.459 78.3023 114.519 78.3023C105.787 78.3023 100.709 73.0822 100.709 63.6384C100.709 54.1947 105.597 48.8085 114.591 48.8085C118.506 48.8085 121.235 50.066 123.347 51.8219V58.5844H118.672V54.0523C117.604 53.5303 116.394 53.1981 114.757 53.1981C109.394 53.1981 106.404 56.6624 106.404 63.5435C106.404 69.8077 109.014 73.8889 114.638 73.8889C117.415 73.8889 119.526 72.8686 120.784 71.7297L123.845 74.9092Z" fill="white"/>
</g>
<path d="M138.178 53.293H135.354V73.8178H138.178V77.8041H127.262V73.8178H130.062V53.293H127.262V49.3067H138.178V53.293Z" fill="white"/>
<path d="M163.711 69.5467L163.308 77.8041H142.259V73.8178H145.06V53.293H142.259V49.3067H163.189V56.6387H158.467V53.293H150.351V61.3131H159.108V65.5841H150.351V73.8178H158.752L158.941 69.5467H163.711Z" fill="white"/>
<path d="M178.376 77.8041H167.46V73.8178H170.261V53.293H167.46V49.3067H174.959L187.346 67.4587L188.485 69.4281V53.293H185.044V49.3067H195.984V53.293H193.16V77.8041H188.556L176.051 59.6047L174.912 57.659V73.8178H178.376V77.8041Z" fill="white"/>
<mask id="mask2_0_709" style="mask-type:luminance" maskUnits="userSpaceOnUse" x="0" y="0" width="276" height="97">
<path d="M276 0H0V97H276V0Z" fill="white"/>
</mask>
<g mask="url(#mask2_0_709)">
<path d="M222.11 74.9092C219.832 77.021 216.723 78.3023 212.784 78.3023C204.052 78.3023 198.973 73.0822 198.973 63.6384C198.973 54.1947 203.862 48.8085 212.855 48.8085C216.771 48.8085 219.5 50.066 221.612 51.8219V58.5844H216.937V54.0523C215.869 53.5303 214.659 53.1981 213.021 53.1981C207.659 53.1981 204.669 56.6624 204.669 63.5435C204.669 69.8077 207.279 73.8889 212.903 73.8889C215.679 73.8889 217.791 72.8686 219.049 71.7297L222.11 74.9092Z" fill="white"/>
</g>
<path d="M247.002 69.5467L246.599 77.8041H225.527V73.8178H228.351V53.293H225.527V49.3067H246.48V56.6387H241.734V53.293H233.643V61.3131H242.399V65.5841H233.643V73.8178H242.043L242.233 69.5467H247.002Z" fill="white"/>
<mask id="mask3_0_709" style="mask-type:luminance" maskUnits="userSpaceOnUse" x="0" y="0" width="276" height="97">
<path d="M276 0H0V97H276V0Z" fill="white"/>
</mask>
<g mask="url(#mask3_0_709)">
<path d="M53.6055 37.4902C54.7446 30.3481 54.8632 23.989 52.8937 18.2943C49.002 7.07094 38.4423 0 27.1707 0C24.2282 0 21.2383 0.47456 18.2958 1.49486C4.12915 6.40656 -3.41689 21.9247 1.49515 36.0903C5.07834 46.4594 15.2821 54.2422 28.2148 64.113C32.5336 67.4112 36.971 70.8043 41.6221 74.6245L44.3984 76.9024L45.1578 73.3906C46.4392 67.5061 47.8392 62.0961 49.1918 56.8285C49.6427 55.0964 50.0698 53.4117 50.497 51.7507C49.3342 50.683 48.1003 49.5678 46.7714 48.4763C46.2019 50.8253 45.5849 53.2219 44.9442 55.737C43.8526 59.9843 42.7374 64.3266 41.6458 68.9772C37.944 65.9875 34.3608 63.2588 30.8725 60.6013C18.5331 51.205 8.8039 43.7544 5.62412 34.6429C1.51888 22.7551 7.83098 9.7522 19.7196 5.64726C22.1874 4.79305 24.6791 4.38968 27.1469 4.38968C36.5914 4.38968 45.4425 10.3217 48.7172 19.718C50.1885 23.9653 50.2834 28.8058 49.5952 34.2632C50.9715 35.331 52.3004 36.3987 53.5818 37.4665" fill="white"/>
</g>
</g>
<defs>
<clipPath id="clip0_0_709">
<rect width="276" height="97" fill="white"/>
</clipPath>
</defs>
</svg>
