<svg width="209" height="75" viewBox="0 0 209 75" fill="none" xmlns="http://www.w3.org/2000/svg">
<path d="M174.297 23.2914L171.723 14.6985H170.694V13.4924H174.15V14.6985H173.12L175.032 21.6331L177.532 13.4924H178.929L181.428 21.5578L183.34 14.6985H182.311V13.4924H185.766V14.6985H184.811L182.237 23.2914H180.767L178.267 15.3015L175.694 23.2914H174.297Z" fill="#003087"/>
<path d="M187.016 13.4923H189.663V22.0853H190.913V23.2913H187.016V22.0853H188.266V14.6984H187.016V13.4923ZM188.928 9.12048C189.516 9.12048 189.884 9.57274 189.884 10.025C189.884 10.4773 189.516 10.9295 188.928 10.9295C188.34 10.9295 187.972 10.5526 187.972 10.025C187.972 9.49737 188.34 9.12048 188.928 9.12048Z" fill="#003087"/>
<path d="M191.943 13.4924H193.486V11.0803H194.883V13.4924H197.236V14.6984H194.883V20.4271C194.883 21.8592 195.472 22.2361 196.28 22.2361C196.795 22.2361 197.016 22.1607 197.457 22.01L197.604 23.1406C197.089 23.3668 196.722 23.4421 196.133 23.4421C194.369 23.4421 193.486 22.5376 193.486 20.2009V14.623H191.943V13.4924Z" fill="#003087"/>
<path d="M209 23.2913H206.353V17.7134C206.353 15.6783 205.544 14.623 204 14.623C202.677 14.623 201.28 15.4521 201.28 17.8642V22.1607H202.53V23.3667H198.56V22.1607H199.81V10.3265H198.56V9.12048H201.207V14.9999C201.795 14.02 202.824 13.2662 204.221 13.2662C206.5 13.2662 207.677 14.9245 207.677 17.6381V22.0853H208.927L209 23.2913Z" fill="#003087"/>
<path d="M52.0259 47.0351C49.3056 39.0452 41.5855 33.015 31.8803 25.402C28.6452 22.8391 25.2631 20.201 21.734 17.2613L19.6753 15.5276L19.0871 18.2412C18.1313 22.7638 17.0284 26.9849 16.0726 31.0552C15.705 32.412 15.4109 33.6934 15.1168 35.0502C15.9991 35.8793 16.9549 36.7085 17.9107 37.5376C18.3519 35.7286 18.793 33.8442 19.3077 31.8844C20.1164 28.5678 20.9987 25.2512 21.8075 21.6331C24.6014 23.9698 27.3218 26.0804 29.9687 28.1155C39.1592 35.4271 46.5116 41.1557 48.8644 48.1658C51.9524 57.3618 47.1733 67.3869 38.2769 70.5527C36.4388 71.2311 34.5272 71.5326 32.6891 71.5326C25.5572 71.5326 18.8665 66.9346 16.4402 59.6984C15.3374 56.4572 15.2638 52.6884 15.7785 48.4673C14.7492 47.6381 13.7198 46.809 12.764 45.9799C11.8817 51.4824 11.8082 56.3819 13.2787 60.7537C16.2197 69.4221 24.1603 74.9246 32.6891 74.9246C34.8948 74.9246 37.1741 74.5477 39.3798 73.7939C50.0408 70.0251 55.7022 58.0402 52.0259 47.0351Z" fill="#1BBCEF"/>
<path d="M52.9082 22.6884V25.7788C54.0845 26.0804 55.3345 26.2311 56.4373 26.2311C59.0107 26.2311 60.7017 25.3266 60.7017 22.9145C60.7017 17.7889 49.5996 20.5025 49.5996 12.814C49.5996 8.06528 53.1287 6.55774 56.6579 6.55774C59.5253 6.55774 62.2457 7.31151 63.7162 8.21603V13.1155H60.3341V10.2512C59.2312 9.9497 58.1284 9.72357 56.7314 9.72357C54.5992 9.72357 53.2022 10.4773 53.2022 12.5125C53.2022 17.3366 64.3044 14.5477 64.3044 22.5376C64.3044 27.5125 60.5547 29.3969 56.1432 29.3969C53.4963 29.3969 50.7024 28.8693 49.4525 28.1909V22.7638L52.9082 22.6884Z" fill="#1BBCEF"/>
<path d="M83.4943 22.5376L83.2002 28.9446H67.319V25.8542H69.4512V10.025H67.319V6.93457H83.1267V12.5878H79.5975V10.025H73.495V16.2059H80.1122V19.5225H73.495V25.8542H79.8181L79.9651 22.5376C79.8916 22.5376 83.4943 22.5376 83.4943 22.5376Z" fill="#1BBCEF"/>
<path d="M92.7584 28.9446H85.0383V25.8542H87.0235L93.9348 6.93457H97.8315L104.669 25.8542H106.728V28.9446H99.0079V25.8542H100.699L99.8167 23.216H92.0967L91.2144 25.8542H92.9054L92.7584 28.9446ZM92.9789 20.1255H98.7138L95.8464 11.6833L92.9789 20.1255Z" fill="#1BBCEF"/>
<path d="M123.933 22.5376L123.639 28.9446H108.419V25.8542H110.551V10.025H108.419V6.93457H117.242V10.025H114.522V25.8542H120.256L120.403 22.5376H123.933Z" fill="#1BBCEF"/>
<path d="M142.167 22.5376L141.873 28.9446H125.991V25.8542H128.123V10.025H125.991V6.93457H141.799V12.5878H138.27V10.025H132.167V16.2059H138.784V19.5225H132.167V25.8542H138.49L138.637 22.5376C138.564 22.5376 142.167 22.5376 142.167 22.5376Z" fill="#1BBCEF"/>
<path d="M144.961 25.8542H147.093V10.025H144.961V6.93457H153.122C160.989 6.93457 164.812 11.3064 164.812 17.8642C164.812 25.2512 161.062 28.9446 153.122 28.9446H144.961V25.8542ZM151.063 9.94965V25.7788H153.122C158.636 25.7788 160.474 22.4622 160.474 17.7888C160.474 13.6431 158.489 9.94965 153.048 9.94965H151.063Z" fill="#1BBCEF"/>
<path d="M62.7604 53.8943V56.9848C63.9368 57.2863 65.1867 57.437 66.2896 57.437C68.863 57.437 70.554 56.5325 70.554 54.1205C70.554 48.9948 59.4519 51.7084 59.4519 44.02C59.4519 39.2712 62.981 37.7637 66.5102 37.7637C69.3776 37.7637 72.098 38.5174 73.5685 39.422V44.3215H70.1864V41.4571C69.0835 41.1556 67.9807 40.9295 66.5837 40.9295C64.4515 40.9295 63.0545 41.6833 63.0545 43.7184C63.0545 48.5426 74.1567 45.7536 74.1567 53.7436C74.1567 58.7184 70.407 60.6029 65.9955 60.6029C63.3486 60.6029 60.5547 60.0752 59.3048 59.3968V53.9697L62.7604 53.8943Z" fill="#003087"/>
<path d="M94.3758 57.8893C92.6848 59.5476 90.332 60.5275 87.3175 60.5275C80.7739 60.5275 76.8771 56.5325 76.8771 49.221C76.8771 42.0602 80.5533 37.7637 87.3175 37.7637C90.2585 37.7637 92.3172 38.7436 93.9347 40.1004V45.3014H90.4055V41.834C89.5968 41.4571 88.7145 41.1556 87.4646 41.1556C83.4207 41.1556 81.1415 43.8692 81.1415 49.1456C81.1415 53.9697 83.1266 57.1355 87.3175 57.1355C89.3762 57.1355 90.9937 56.3818 91.9495 55.4772L94.3758 57.8893Z" fill="#003087"/>
<path d="M105.184 41.1559H103.052V56.985H105.184V60.0755H96.9492V56.985H99.0814V41.1559H96.9492V38.0654H105.184V41.1559Z" fill="#003087"/>
<path d="M124.374 53.7436L124.08 60.1507H108.198V57.0602H110.331V41.2311H108.198V38.1406H124.006V43.7939H120.477V41.2311H114.374V47.412H120.992V50.7286H114.374V57.0602H120.698L120.845 53.7436H124.374Z" fill="#003087"/>
<path d="M135.476 60.1509H127.241V57.0604H129.373V41.2313H127.241V38.1408H132.903L142.24 52.1609L143.122 53.6684V41.1559H140.549V38.0654H148.784V41.1559H146.578V60.0755H143.122L133.711 45.98L132.829 44.4725V56.985H135.476V60.1509Z" fill="#003087"/>
<path d="M168.415 57.8893C166.724 59.5476 164.371 60.5275 161.356 60.5275C154.813 60.5275 150.916 56.5325 150.916 49.221C150.916 42.0602 154.592 37.7637 161.356 37.7637C164.297 37.7637 166.356 38.7436 167.974 40.1004V45.3014H164.444V41.834C163.636 41.4571 162.753 41.1556 161.503 41.1556C157.46 41.1556 155.18 43.8692 155.18 49.1456C155.18 53.9697 157.166 57.1355 161.356 57.1355C163.415 57.1355 165.033 56.3818 165.988 55.4772L168.415 57.8893Z" fill="#003087"/>
<path d="M187.163 53.7436L186.869 60.1507H170.988V57.0602H173.12V41.2311H170.988V38.1406H186.796V43.7939H183.267V41.2311H177.164V47.412H183.781V50.7286H177.164V57.0602H183.487L183.634 53.7436H187.163Z" fill="#003087"/>
<path d="M41.4383 28.9447C42.3206 23.4422 42.3941 18.5427 40.9236 14.0955C37.9092 5.42714 29.9685 0 21.5133 0C19.3075 0 17.0283 0.376884 14.8225 1.13065C4.08801 4.97487 -1.57335 16.9598 2.10286 27.8894C4.82326 35.8794 12.4698 41.9095 22.2485 49.5226C25.4836 52.0854 28.8657 54.7236 32.3213 57.6633L34.38 59.397L34.9682 56.6834C35.924 52.1608 37.0269 47.9397 37.9827 43.8693C38.3503 42.5126 38.6444 41.2312 38.9385 39.9497C38.0562 39.1206 37.1004 38.2915 36.1446 37.3869C35.7034 39.196 35.2623 41.0804 34.7476 42.9648C33.9388 46.2814 33.0566 49.598 32.2478 53.2161C29.4539 50.8794 26.7335 48.7688 24.1601 46.7337C14.9696 39.5729 7.61718 33.8442 5.2644 26.7588C2.17638 17.6382 6.95546 7.53769 15.8519 4.37186C17.69 3.69347 19.6016 3.39196 21.4397 3.39196C28.5716 3.39196 35.2623 7.98995 37.6886 15.2261C38.7914 18.4673 38.865 22.2362 38.3503 26.4573C39.4532 27.3618 40.409 28.191 41.4383 28.9447Z" fill="#003087"/>
</svg>
