<svg width="89" height="89" viewBox="0 0 89 89" fill="none" xmlns="http://www.w3.org/2000/svg">
<path d="M44.5 87.4562C20.8161 87.4562 1.54376 68.1838 1.54376 44.4999C1.54376 20.816 20.8161 1.5437 44.5 1.5437C68.1839 1.5437 87.4562 20.8106 87.4562 44.4999C87.4562 68.1893 68.1839 87.4562 44.5 87.4562Z" fill="white"/>
<path d="M44.5 3.08753C67.3323 3.08753 85.907 21.6622 85.907 44.5C85.907 67.3378 67.3323 85.9125 44.5 85.9125C21.6677 85.9125 3.08753 67.3323 3.08753 44.5C3.08753 21.6677 21.6677 3.08753 44.5 3.08753ZM44.5 0C19.9206 0 0 19.9206 0 44.5C0 69.0794 19.9206 89 44.5 89C69.0794 89 89 69.0794 89 44.5C89 19.9206 69.0794 0 44.5 0Z" fill="black"/>
<path d="M37.545 26.5239V38.6598H34.6718V26.5239H37.545Z" fill="black"/>
<path d="M43.4839 29.7378C43.4839 29.3753 43.418 29.0676 43.2806 28.8094C43.1488 28.5567 42.94 28.4248 42.6653 28.4248C42.3577 28.4248 42.1324 28.5347 41.9841 28.7544C41.8412 28.9742 41.7698 29.2214 41.7698 29.4961C41.7698 29.8917 41.8852 30.2048 42.1159 30.4411C42.3467 30.6718 42.6379 30.8751 42.9895 31.0454C43.3411 31.2157 43.7146 31.386 44.1157 31.5618C44.5167 31.7376 44.8958 31.9683 45.2419 32.2485C45.5935 32.5342 45.8847 32.9023 46.1154 33.3638C46.3462 33.8253 46.4616 34.4186 46.4616 35.1548C46.4616 36.4458 46.1264 37.3853 45.4562 37.9676C44.7859 38.5499 43.819 38.8411 42.5499 38.8411C41.9511 38.8411 41.4237 38.7862 40.9677 38.6818C40.5117 38.5719 40.1217 38.3851 39.8085 38.1214C39.4954 37.8577 39.2537 37.5061 39.0888 37.0776C38.924 36.6491 38.8416 36.1162 38.8416 35.4789V35.0559H41.6215V35.347C41.6215 35.869 41.7094 36.2315 41.8852 36.4458C42.061 36.6546 42.2862 36.759 42.5664 36.759C42.8631 36.759 43.0938 36.6436 43.2532 36.4183C43.4125 36.1931 43.4949 35.9129 43.4949 35.5833C43.4949 35.1877 43.385 34.8746 43.1653 34.6383C42.9455 34.4076 42.6653 34.2098 42.3302 34.045C41.9951 33.8802 41.6325 33.7154 41.2424 33.5451C40.8524 33.3748 40.4898 33.155 40.1546 32.8803C39.8195 32.6056 39.5393 32.2485 39.3196 31.809C39.0998 31.3695 38.9899 30.7872 38.9899 30.073C38.9899 28.8369 39.2866 27.8974 39.8854 27.2491C40.4843 26.6009 41.3908 26.2822 42.6049 26.2822C43.819 26.2822 44.7695 26.5789 45.3298 27.1722C45.8902 27.7656 46.1704 28.716 46.1704 30.018H43.4839V29.7269V29.7378Z" fill="black"/>
<path d="M47.7471 29.6939C47.8789 28.8973 48.1042 28.2435 48.4118 27.7381C48.7195 27.2327 49.126 26.8646 49.6315 26.6338C50.1369 26.4031 50.7522 26.2877 51.4884 26.2877C52.2246 26.2877 52.8399 26.4031 53.3453 26.6338C53.8507 26.8646 54.2573 27.2327 54.5649 27.7381C54.8726 28.2435 55.0923 28.8918 55.2297 29.6939C55.3615 30.4905 55.433 31.4574 55.433 32.5891C55.433 33.7209 55.367 34.6878 55.2297 35.4844C55.0978 36.281 54.8726 36.9348 54.5649 37.4402C54.2573 37.9456 53.8507 38.3027 53.3453 38.517C52.8399 38.7312 52.2246 38.8411 51.4884 38.8411C50.7522 38.8411 50.1369 38.7312 49.6315 38.517C49.126 38.3027 48.7195 37.9401 48.4118 37.4402C48.1042 36.9348 47.8789 36.2865 47.7471 35.4844C47.6152 34.6878 47.5438 33.7209 47.5438 32.5891C47.5438 31.4574 47.6098 30.4905 47.7471 29.6939ZM50.5435 34.6219C50.5654 35.1603 50.6094 35.5888 50.6753 35.9074C50.7412 36.2261 50.8401 36.4458 50.972 36.5722C51.0983 36.6985 51.2741 36.759 51.4884 36.759C51.7027 36.759 51.8785 36.6985 52.0048 36.5722C52.1312 36.4458 52.2301 36.2261 52.296 35.9074C52.3619 35.5888 52.4059 35.1603 52.4278 34.6219C52.4498 34.0835 52.4608 33.4077 52.4608 32.5891C52.4608 31.7706 52.4498 31.0948 52.4278 30.5564C52.4059 30.018 52.3619 29.5895 52.296 29.2709C52.2301 28.9522 52.1312 28.7325 52.0048 28.6061C51.8785 28.4798 51.7027 28.4193 51.4884 28.4193C51.2741 28.4193 51.0983 28.4798 50.972 28.6061C50.8401 28.7325 50.7467 28.9522 50.6753 29.2709C50.6094 29.5895 50.5654 30.018 50.5435 30.5564C50.5215 31.0948 50.5105 31.7706 50.5105 32.5891C50.5105 33.4077 50.5215 34.0835 50.5435 34.6219Z" fill="black"/>
<path d="M12.3558 55.4104C12.4712 55.5532 12.658 55.6247 12.9272 55.6247C13.136 55.6247 13.3173 55.5423 13.4766 55.372C13.6359 55.2016 13.7183 54.9489 13.7183 54.6083V52.8613H13.6854C13.559 53.1195 13.3337 53.3228 12.9986 53.4766C12.6635 53.6304 12.2789 53.7073 11.8449 53.7073C11.4549 53.7073 11.0978 53.6524 10.7791 53.548C10.4605 53.4381 10.1858 53.2623 9.95504 53.0096C9.7243 52.7569 9.54301 52.4163 9.42214 51.9878C9.29578 51.5592 9.23535 51.0263 9.23535 50.389C9.23535 49.6474 9.31776 49.0156 9.47708 48.4937C9.6364 47.9718 9.87264 47.5487 10.1858 47.2136C10.4989 46.8785 10.8835 46.6368 11.3395 46.4884C11.7955 46.3401 12.3119 46.2632 12.8997 46.2632C13.526 46.2632 14.0809 46.3401 14.5534 46.4884C15.0258 46.6368 15.4214 46.895 15.7345 47.2521C16.0477 47.6147 16.2839 48.0926 16.4433 48.6915C16.6026 49.2903 16.685 50.0374 16.685 50.9329V52.1361C16.685 52.9821 16.641 53.7293 16.5531 54.3831C16.4652 55.0368 16.2894 55.5862 16.0202 56.0367C15.751 56.4872 15.372 56.8168 14.8775 57.0421C14.3831 57.2618 13.7293 57.3717 12.9162 57.3717C12.2075 57.3717 11.6252 57.3003 11.1802 57.1574C10.7297 57.0146 10.3836 56.8113 10.1308 56.5531C9.87813 56.2949 9.70233 55.9982 9.60344 55.6631C9.50455 55.328 9.4551 54.9764 9.4551 54.6028H12.1416C12.1526 54.9709 12.224 55.2401 12.3558 55.4049V55.4104ZM12.2844 51.2681C12.4053 51.5153 12.6086 51.6361 12.9107 51.6361C13.1799 51.6361 13.3777 51.5153 13.515 51.2681C13.6469 51.0208 13.7183 50.5484 13.7183 49.8452C13.7183 49.142 13.6579 48.6695 13.5425 48.4223C13.4216 48.175 13.2129 48.0487 12.9162 48.0487C12.647 48.0487 12.4492 48.175 12.3119 48.4223C12.18 48.6695 12.1086 49.142 12.1086 49.8452C12.1086 50.5484 12.1691 51.0208 12.2844 51.2681Z" fill="black"/>
<path d="M18.1903 49.1035C18.3386 48.3838 18.5639 47.8124 18.8715 47.3894C19.1737 46.9664 19.5637 46.6752 20.0307 46.5104C20.4977 46.3456 21.0526 46.2632 21.6898 46.2632C22.3271 46.2632 22.882 46.3456 23.349 46.5104C23.816 46.6752 24.206 46.9664 24.5082 47.3894C24.8103 47.8124 25.0411 48.3838 25.1894 49.1035C25.3377 49.8232 25.4147 50.7352 25.4147 51.8394C25.4147 52.9437 25.3377 53.8666 25.1894 54.5808C25.0411 55.295 24.8158 55.8609 24.5082 56.2784C24.206 56.696 23.816 56.9816 23.349 57.1355C22.882 57.2893 22.3271 57.3662 21.6898 57.3662C21.0526 57.3662 20.4977 57.2893 20.0307 57.1355C19.5637 56.9816 19.1737 56.696 18.8715 56.2784C18.5693 55.8609 18.3386 55.295 18.1903 54.5808C18.0419 53.8666 17.965 52.9492 17.965 51.8394C17.965 50.7297 18.0419 49.8232 18.1903 49.1035ZM21.0361 55.2181C21.1679 55.4928 21.3877 55.6302 21.6843 55.6302C21.981 55.6302 22.2008 55.4928 22.3326 55.2181C22.4645 54.9434 22.5359 54.4215 22.5359 53.6524V50.0374C22.5359 49.2628 22.47 48.7409 22.3326 48.4717C22.2008 48.197 21.981 48.0597 21.6843 48.0597C21.3877 48.0597 21.1679 48.197 21.0361 48.4717C20.9042 48.7464 20.8328 49.2683 20.8328 50.0374V53.6524C20.8328 54.427 20.8987 54.9489 21.0361 55.2181Z" fill="black"/>
<path d="M26.92 49.1035C27.0683 48.3838 27.2936 47.8124 27.6012 47.3894C27.9034 46.9664 28.2935 46.6752 28.7604 46.5104C29.2274 46.3456 29.7823 46.2632 30.4196 46.2632C31.0569 46.2632 31.6117 46.3456 32.0787 46.5104C32.5457 46.6752 32.9358 46.9664 33.2379 47.3894C33.5401 47.8124 33.7708 48.3838 33.9191 49.1035C34.0675 49.8232 34.1444 50.7352 34.1444 51.8394C34.1444 52.9437 34.0675 53.8666 33.9191 54.5808C33.7708 55.295 33.5456 55.8609 33.2379 56.2784C32.9358 56.696 32.5457 56.9816 32.0787 57.1355C31.6117 57.2893 31.0569 57.3662 30.4196 57.3662C29.7823 57.3662 29.2274 57.2893 28.7604 57.1355C28.2935 56.9816 27.9034 56.696 27.6012 56.2784C27.2991 55.8609 27.0683 55.295 26.92 54.5808C26.7717 53.8666 26.6948 52.9492 26.6948 51.8394C26.6948 50.7297 26.7717 49.8232 26.92 49.1035ZM29.7658 55.2181C29.8977 55.4928 30.1174 55.6302 30.4141 55.6302C30.7108 55.6302 30.9305 55.4928 31.0624 55.2181C31.1942 54.9434 31.2656 54.4215 31.2656 53.6524V50.0374C31.2656 49.2628 31.1997 48.7409 31.0624 48.4717C30.9305 48.197 30.7108 48.0597 30.4141 48.0597C30.1174 48.0597 29.8977 48.197 29.7658 48.4717C29.634 48.7464 29.5625 49.2683 29.5625 50.0374V53.6524C29.5625 54.427 29.6285 54.9489 29.7658 55.2181Z" fill="black"/>
<path d="M37.6494 49.752H35.5782V47.961C36.0232 47.961 36.4023 47.9336 36.721 47.8731C37.0396 47.8182 37.3143 47.7248 37.5395 47.5929C37.7648 47.4666 37.9516 47.2908 38.0944 47.0655C38.2373 46.8458 38.3581 46.5711 38.4515 46.2524H40.5227V57.1906H37.6494V49.741V49.752Z" fill="black"/>
<path d="M46.5494 48.8398V51.8999H43.9564V48.8398H46.5494ZM46.5494 54.1414V57.2014H43.9564V54.1414H46.5494Z" fill="black"/>
<path d="M49.4227 48.4497C49.5161 47.9937 49.6919 47.5982 49.9501 47.274C50.2083 46.9499 50.5654 46.7027 51.0324 46.5269C51.4939 46.3511 52.1037 46.2632 52.8563 46.2632C53.609 46.2632 54.1639 46.3401 54.6199 46.4939C55.0704 46.6478 55.4329 46.862 55.6912 47.1367C55.9549 47.4114 56.1362 47.7245 56.2295 48.0871C56.3284 48.4497 56.3779 48.8343 56.3779 49.2463C56.3779 49.988 56.257 50.6088 56.0098 51.1142C55.7626 51.6197 55.4329 52.0757 55.0209 52.4877L53.3233 54.1413C53.197 54.2622 53.0651 54.405 52.9113 54.5589C52.7574 54.7127 52.6641 54.872 52.6091 55.0368H56.3779V57.2014H49.1755C49.1755 56.4268 49.2908 55.7016 49.5216 55.0148C49.7523 54.3281 50.1863 53.6634 50.8126 53.0151L52.73 51.0703C53.0102 50.7901 53.2079 50.5264 53.3233 50.2737C53.4387 50.021 53.4991 49.6913 53.4991 49.2793C53.4991 48.8178 53.4332 48.4992 53.2958 48.3234C53.164 48.1476 52.9827 48.0597 52.7574 48.0597C52.6531 48.0597 52.5542 48.0761 52.4663 48.1146C52.3729 48.1531 52.2905 48.219 52.2136 48.3234C52.1366 48.4278 52.0762 48.5761 52.0268 48.7629C51.9828 48.9552 51.9554 49.2024 51.9554 49.51V49.9715H49.2689C49.2799 49.4166 49.3293 48.9057 49.4227 48.4497Z" fill="black"/>
<path d="M57.8228 49.1035C57.9711 48.3838 58.1964 47.8124 58.504 47.3894C58.8062 46.9664 59.1962 46.6752 59.6632 46.5104C60.1302 46.3456 60.6851 46.2632 61.3224 46.2632C61.9596 46.2632 62.5145 46.3456 62.9815 46.5104C63.4485 46.6752 63.8385 46.9664 64.1407 47.3894C64.4428 47.8124 64.6736 48.3838 64.8219 49.1035C64.9703 49.8232 65.0472 50.7352 65.0472 51.8394C65.0472 52.9437 64.9703 53.8666 64.8219 54.5808C64.6736 55.295 64.4483 55.8609 64.1407 56.2784C63.8385 56.696 63.4485 56.9816 62.9815 57.1355C62.5145 57.2893 61.9596 57.3662 61.3224 57.3662C60.6851 57.3662 60.1302 57.2893 59.6632 57.1355C59.1962 56.9816 58.8062 56.696 58.504 56.2784C58.2019 55.8609 57.9711 55.295 57.8228 54.5808C57.6744 53.8666 57.5975 52.9492 57.5975 51.8394C57.5975 50.7297 57.6744 49.8232 57.8228 49.1035ZM60.6686 55.2181C60.8004 55.4928 61.0202 55.6302 61.3169 55.6302C61.6135 55.6302 61.8333 55.4928 61.9651 55.2181C62.097 54.9434 62.1684 54.4215 62.1684 53.6524V50.0374C62.1684 49.2628 62.1025 48.7409 61.9651 48.4717C61.8333 48.197 61.6135 48.0597 61.3169 48.0597C61.0202 48.0597 60.8004 48.197 60.6686 48.4717C60.5367 48.7464 60.4653 49.2683 60.4653 50.0374V53.6524C60.4653 54.427 60.5312 54.9489 60.6686 55.2181Z" fill="black"/>
<path d="M68.2446 49.752H66.1734V47.961C66.6184 47.961 66.9975 47.9336 67.3161 47.8731C67.6348 47.8182 67.9095 47.7248 68.1347 47.5929C68.3599 47.4666 68.5467 47.2908 68.6896 47.0655C68.8324 46.8458 68.9533 46.5711 69.0467 46.2524H71.1178V57.1906H68.2446V49.741V49.752Z" fill="black"/>
<path d="M79.8914 46.4775V48.6421H75.7326L75.6117 50.4825C75.8809 50.2353 76.1831 50.0375 76.5182 49.8947C76.8533 49.7519 77.2269 49.6804 77.639 49.6804C78.5345 49.6804 79.2157 49.9661 79.6772 50.532C80.1387 51.0979 80.3749 51.9769 80.3749 53.158C80.3749 53.8777 80.3145 54.504 80.1991 55.0369C80.0837 55.5698 79.8804 56.0093 79.6058 56.3554C79.3256 56.707 78.9575 56.9653 78.5015 57.1301C78.0455 57.2949 77.4741 57.3773 76.7929 57.3773C75.5238 57.3773 74.6119 57.1081 74.0515 56.5752C73.4911 56.0423 73.2109 55.2787 73.2109 54.2898V53.9327H75.8974V54.3062C75.8974 54.8227 75.9688 55.1688 76.1062 55.3556C76.2435 55.5424 76.4358 55.6357 76.683 55.6357C76.8259 55.6357 76.9467 55.6138 77.0456 55.5643C77.1445 55.5204 77.2269 55.4105 77.2983 55.2457C77.3698 55.0809 77.4247 54.8446 77.4522 54.537C77.4851 54.2293 77.4961 53.8118 77.4961 53.2844C77.4961 52.6691 77.4247 52.2351 77.2874 51.9933C77.15 51.7516 76.9467 51.6308 76.6775 51.6308C76.4413 51.6308 76.249 51.7022 76.1062 51.845C75.9633 51.9879 75.8919 52.2241 75.8919 52.5537H73.2988L73.5461 46.483H79.8969L79.8914 46.4775Z" fill="black"/>
<path d="M72.3482 44.3956H71.3703C71.3703 29.804 59.4212 17.9374 44.7307 17.9374C30.0403 17.9374 18.0912 29.8095 18.0912 44.3956H17.1133C17.1133 29.2656 29.5019 16.9595 44.7307 16.9595C59.9596 16.9595 72.3482 29.2656 72.3482 44.3956Z" fill="black"/>
<path d="M44.7308 71.8371C35.3308 71.8371 26.6561 67.1454 21.5358 59.2892L22.3544 58.7563C27.2934 66.3378 35.6605 70.8592 44.7308 70.8592C53.8011 70.8592 62.1682 66.3323 67.1071 58.7563L67.9257 59.2892C62.8055 67.1454 54.1362 71.8371 44.7308 71.8371Z" fill="black"/>
<path d="M19.8383 64.2501C20.1844 64.6841 20.3492 65.0962 20.3437 65.4972C20.3382 65.8983 20.1294 66.2554 19.7229 66.5795C19.4098 66.8322 19.0966 66.9641 18.7835 66.986C18.4703 67.008 18.1736 66.8926 17.8825 66.6454L17.8715 66.6564C18.0418 66.9421 18.1187 67.1948 18.0967 67.4091C18.0748 67.6233 17.9429 67.8486 17.7067 68.0848C17.6243 68.1617 17.5364 68.2441 17.4375 68.332C17.3386 68.4199 17.2287 68.5133 17.1023 68.6232C16.8606 68.832 16.6848 68.9968 16.564 69.1231C16.4541 69.255 16.4156 69.3923 16.4431 69.5242L16.4046 69.5571L15.5091 68.4309C15.5311 68.3265 15.5806 68.2331 15.6575 68.1507C15.7344 68.0683 15.8113 67.9859 15.8992 67.909L16.7727 67.1673C16.9485 67.0135 17.0529 66.8487 17.0859 66.6729C17.1188 66.4971 17.0474 66.3048 16.8771 66.085L16.4376 65.5302L14.4598 67.1069L13.6357 66.0686L18.3165 62.3438L19.8438 64.2611L19.8383 64.2501ZM17.4375 65.4313C17.6352 65.684 17.844 65.8323 18.0583 65.8818C18.2725 65.9312 18.5088 65.8543 18.7615 65.651C19.1955 65.3049 19.2175 64.8929 18.8384 64.4149L18.4483 63.926L17.0969 65.0028L17.443 65.4368L17.4375 65.4313Z" fill="black"/>
<path d="M23.8652 69.7494L22.1292 68.1617L21.1788 69.2L22.8104 70.6943L22.1457 71.425L20.514 69.9307L19.4262 71.1174L21.2282 72.7655L20.5634 73.4962L17.7836 70.9526L21.8215 66.541L24.5355 69.0242L23.8707 69.7549L23.8652 69.7494Z" fill="black"/>
<path d="M26.9583 72.4579C27.0022 72.3426 27.0242 72.2327 27.0242 72.1173C27.0242 72.0019 27.0077 71.8921 26.9638 71.7877C26.9198 71.6833 26.8429 71.5899 26.7275 71.5185C26.4638 71.3427 26.1782 71.3482 25.8815 71.5405C25.5848 71.7327 25.2277 72.1393 24.8157 72.7656C24.6179 73.0623 24.4476 73.3424 24.3103 73.5952C24.1729 73.8534 24.0685 74.0841 24.0136 74.2874C23.9532 74.4906 23.9477 74.6719 23.9861 74.8313C24.0246 74.9906 24.1235 75.1169 24.2828 75.2268C24.3487 75.2708 24.4311 75.3037 24.5355 75.3202C24.6344 75.3422 24.7443 75.3422 24.8542 75.3202C24.964 75.2982 25.0794 75.2543 25.1893 75.1884C25.2992 75.1169 25.4035 75.0181 25.4914 74.8807L25.8321 74.3698L25.1014 73.8863L25.5903 73.1447L27.3813 74.3313L25.6013 77.0178L24.7882 76.4794L25.0959 76.0179L25.0794 76.0069C24.8157 76.1113 24.563 76.1443 24.3213 76.1058C24.0795 76.0619 23.8268 75.9575 23.5686 75.7817C23.2335 75.5565 22.9917 75.3202 22.8489 75.073C22.7061 74.8258 22.6511 74.5511 22.6786 74.2489C22.7061 73.9468 22.8104 73.6171 22.9863 73.26C23.1621 72.9029 23.3928 72.5129 23.684 72.0789C23.9642 71.6613 24.2333 71.3097 24.5025 71.035C24.7717 70.7548 25.0464 70.5626 25.3321 70.4417C25.6178 70.3263 25.909 70.2934 26.2166 70.3428C26.5243 70.3923 26.8539 70.5351 27.2055 70.7658C27.8098 71.1669 28.1559 71.5899 28.2383 72.0404C28.3263 72.4909 28.1999 72.9689 27.8648 73.4743L26.8045 72.7711C26.8649 72.6777 26.9198 72.5733 26.9583 72.4634V72.4579Z" fill="black"/>
<path d="M30.1007 72.6062L31.2929 73.194L28.6558 78.5615L27.4637 77.9737L30.1062 72.6062H30.1007Z" fill="black"/>
<path d="M32.1719 78.2099C32.1279 78.3418 32.095 78.4681 32.084 78.5835C32.0675 78.6988 32.084 78.8032 32.1225 78.9021C32.1609 79.001 32.2268 79.0834 32.3202 79.1658C32.4136 79.2427 32.54 79.3142 32.7048 79.3691C32.8971 79.435 33.0894 79.4405 33.2816 79.3801C33.4739 79.3197 33.6113 79.1713 33.6937 78.9351C33.7376 78.8087 33.7541 78.6934 33.7486 78.589C33.7431 78.4846 33.7102 78.3802 33.6497 78.2758C33.5893 78.1714 33.4959 78.0671 33.375 77.9572C33.2542 77.8473 33.1004 77.7264 32.9136 77.5891C32.6663 77.4078 32.4576 77.232 32.2873 77.0617C32.117 76.8914 31.9906 76.7156 31.8972 76.5343C31.8093 76.353 31.7599 76.1607 31.7599 75.9629C31.7599 75.7652 31.7928 75.5509 31.8752 75.3147C32.0675 74.7543 32.3862 74.3972 32.8202 74.2434C33.2597 74.0895 33.7761 74.1115 34.3749 74.3203C34.6551 74.4192 34.9023 74.5345 35.1166 74.6719C35.3308 74.8092 35.5066 74.9685 35.633 75.1498C35.7594 75.3311 35.8418 75.5399 35.8692 75.7652C35.8967 75.9904 35.8692 76.2376 35.7758 76.5068L35.7209 76.6661L34.5178 76.2486C34.6112 75.9794 34.6276 75.7542 34.5782 75.5729C34.5233 75.3916 34.3749 75.2597 34.1332 75.1773C33.9958 75.1279 33.8695 75.1059 33.7651 75.1114C33.6607 75.1169 33.5673 75.1389 33.4904 75.1828C33.4135 75.2268 33.3531 75.2817 33.3036 75.3531C33.2542 75.4245 33.2157 75.5014 33.1883 75.5893C33.1278 75.7651 33.1168 75.9245 33.1608 76.0728C33.1992 76.2211 33.3366 76.3914 33.5728 76.5837L34.4079 77.2979C34.6112 77.4737 34.776 77.6385 34.8913 77.7979C35.0067 77.9517 35.0891 78.1055 35.1386 78.2539C35.188 78.4022 35.2045 78.556 35.188 78.7098C35.1715 78.8637 35.1386 79.0285 35.0781 79.2043C34.8694 79.8031 34.5342 80.1712 34.0563 80.3085C33.5783 80.4459 33.007 80.4019 32.3257 80.1657C31.617 79.9185 31.161 79.6053 30.9523 79.2208C30.7435 78.8362 30.7325 78.3802 30.9083 77.8583L30.9852 77.6276L32.2378 78.0616L32.1829 78.2264L32.1719 78.2099Z" fill="black"/>
<path d="M41.2971 77.0617L39.8797 76.8145L39.0282 81.737L37.7207 81.5117L38.5722 76.5893L37.1548 76.342L37.3251 75.3696L41.4674 76.0838L41.2971 77.0562V77.0617Z" fill="black"/>
<path d="M46.4613 77.2212L44.11 77.1827L44.088 78.5892L46.302 78.6276L46.2855 79.6165L44.0715 79.5781L44.044 81.1877L46.4833 81.2262L46.4668 82.2151L42.6981 82.1547L42.7969 76.1719L46.4723 76.2323L46.4558 77.2212H46.4613Z" fill="black"/>
<path d="M50.5378 75.7267C51.0817 75.6388 51.5267 75.6937 51.8728 75.897C52.2189 76.1003 52.4276 76.4574 52.5155 76.9683C52.5815 77.3639 52.543 77.7045 52.4112 77.9847C52.2793 78.2648 52.0266 78.4681 51.6695 78.6V78.6164C52.0046 78.6055 52.2628 78.6659 52.4386 78.7868C52.6144 78.9131 52.7463 79.1329 52.8397 79.4625C52.8672 79.5724 52.9001 79.6877 52.9276 79.8196C52.955 79.9459 52.9825 80.0943 53.0155 80.2536C53.0814 80.5668 53.1363 80.803 53.1858 80.9623C53.2517 81.1216 53.3451 81.2205 53.477 81.2645V81.3139L52.065 81.5447C51.9826 81.4732 51.9277 81.3853 51.8892 81.281C51.8508 81.1766 51.8233 81.0667 51.7959 80.9513L51.5761 79.8251C51.5267 79.5943 51.4333 79.424 51.2959 79.3087C51.1586 79.1933 50.9553 79.1603 50.6806 79.2043L49.9774 79.3197L50.3839 81.8193L49.0764 82.0336L48.115 76.1277L50.5323 75.7322L50.5378 75.7267ZM50.3949 78.3967C50.7081 78.3472 50.9443 78.2374 51.0871 78.078C51.2355 77.9132 51.2849 77.6715 51.23 77.3529C51.1421 76.809 50.796 76.5837 50.1862 76.6826L49.5654 76.7815L49.8401 78.4846L50.3839 78.3967H50.3949Z" fill="black"/>
<path d="M57.4765 74.8257L55.2515 75.5783L55.702 76.9133L57.7951 76.2046L58.1138 77.1441L56.0206 77.8528L56.537 79.3746L58.8499 78.5944L59.1686 79.5339L55.5976 80.7425L53.6802 75.0784L57.1633 73.8972L57.482 74.8367L57.4765 74.8257Z" fill="black"/>
<path d="M60.4377 72.2657C60.8442 72.0459 61.2013 71.9306 61.5145 71.9141C61.8276 71.8976 62.1133 71.9635 62.3715 72.1119C62.6297 72.2602 62.8714 72.48 63.0912 72.7656C63.3109 73.0513 63.5252 73.3919 63.734 73.7765C63.9867 74.238 64.1735 74.6555 64.2943 75.0291C64.4152 75.4027 64.4646 75.7433 64.4317 76.0455C64.3987 76.3476 64.2888 76.6223 64.0911 76.8695C63.8988 77.1168 63.6021 77.342 63.2175 77.5563L61.3771 78.5561L58.5203 73.2985L60.4322 72.2602L60.4377 72.2657ZM62.6462 76.864C62.8495 76.7542 62.9978 76.6333 63.0857 76.5014C63.1736 76.3696 63.2176 76.2103 63.2066 76.0235C63.2011 75.8367 63.1406 75.6169 63.0363 75.3642C62.9319 75.1115 62.778 74.8038 62.5858 74.4467C62.4209 74.1501 62.2671 73.8919 62.1243 73.6776C61.9814 73.4634 61.8331 73.2985 61.6848 73.1887C61.5364 73.0733 61.3771 73.0184 61.2013 73.0129C61.0255 73.0129 60.8332 73.0678 60.608 73.1887L60.1135 73.4579L62.1243 77.1552L62.6407 76.875L62.6462 76.864Z" fill="black"/>
<path d="M69.0684 66.9807L68.0081 67.9531L71.3868 71.6285L70.4089 72.524L67.0302 68.8486L65.9699 69.821L65.2997 69.0958L68.3927 66.25L69.063 66.9752L69.0684 66.9807Z" fill="black"/>
<path d="M70.4804 66.5575C70.2057 66.2828 70.0134 66.0026 69.8925 65.7115C69.7717 65.4203 69.7442 65.1071 69.8046 64.783C69.8651 64.4589 70.0518 64.0963 70.354 63.7062C70.6617 63.3161 70.9638 63.0524 71.2715 62.9096C71.5736 62.7723 71.8813 62.7283 72.1944 62.7723C72.5076 62.8162 72.8262 62.9426 73.1559 63.1403C73.4855 63.3381 73.8261 63.5798 74.1832 63.86C74.5458 64.1402 74.8589 64.4204 75.1281 64.6896C75.3973 64.9588 75.5951 65.239 75.7105 65.5357C75.8313 65.8268 75.8533 66.1345 75.7874 66.4586C75.7215 66.7827 75.5347 67.1398 75.227 67.5299C74.9194 67.92 74.6172 68.1892 74.3205 68.332C74.0239 68.4748 73.7217 68.5243 73.4086 68.4748C73.0954 68.4309 72.7768 68.31 72.4472 68.1123C72.1175 67.9145 71.7769 67.6727 71.4143 67.3926C71.0572 67.1124 70.7441 66.8377 70.4694 66.5685L70.4804 66.5575ZM73.0734 66.9476C73.3097 67.1069 73.513 67.2113 73.6943 67.2717C73.8701 67.3321 74.0294 67.3376 74.1667 67.2937C74.3041 67.2497 74.4359 67.1508 74.5568 66.997C74.6777 66.8432 74.7436 66.6948 74.7546 66.5465C74.7656 66.3982 74.7216 66.2498 74.6227 66.0905C74.5238 65.9312 74.37 65.7554 74.1612 65.5631C73.9525 65.3708 73.6888 65.1511 73.3756 64.9039C73.0625 64.6566 72.7823 64.4534 72.5515 64.2995C72.3208 64.1457 72.112 64.0358 71.9307 63.9754C71.7494 63.915 71.5901 63.9095 71.4528 63.9534C71.3154 63.9974 71.1836 64.0963 71.0627 64.2501C70.9418 64.4039 70.8759 64.5523 70.8649 64.7006C70.8539 64.8489 70.8979 64.9973 71.0023 65.1566C71.1067 65.3159 71.255 65.4917 71.4638 65.684C71.6725 65.8708 71.9307 66.0905 72.2494 66.3377C72.568 66.585 72.8427 66.7882 73.0789 66.9476H73.0734Z" fill="black"/>
<path d="M23.5413 15.6794C23.4314 15.5915 23.3106 15.5201 23.1897 15.4707C23.0634 15.4212 22.937 15.4047 22.7997 15.4102C22.6678 15.4157 22.5414 15.4707 22.4206 15.5641C22.1349 15.7893 22.047 16.1025 22.1569 16.498C22.2668 16.8936 22.5909 17.4485 23.1348 18.1407C23.393 18.4703 23.6402 18.767 23.8764 19.0197C24.1072 19.2724 24.3269 19.4702 24.5357 19.613C24.7445 19.7559 24.9367 19.8383 25.1235 19.8547C25.3103 19.8712 25.4916 19.8163 25.6619 19.6789C25.7334 19.624 25.7993 19.5416 25.8542 19.4427C25.9092 19.3438 25.9476 19.223 25.9641 19.0911C25.9806 18.9593 25.9696 18.8219 25.9311 18.6681C25.8927 18.5197 25.8158 18.3659 25.6949 18.2176L25.2499 17.6517L24.4643 18.267L23.816 17.443L25.7388 15.9377L28.0847 18.9373L27.2112 19.624L26.8101 19.1076L26.7937 19.1186C26.8211 19.4482 26.7717 19.7394 26.6398 19.9866C26.508 20.2338 26.3047 20.4701 26.0245 20.6898C25.6619 20.9755 25.3158 21.1458 24.9972 21.2062C24.673 21.2667 24.3544 21.2227 24.0303 21.0744C23.7061 20.926 23.3765 20.6843 23.0469 20.3547C22.7172 20.0251 22.3601 19.6185 21.9866 19.1351C21.6185 18.6681 21.3328 18.2341 21.1185 17.8275C20.9043 17.4265 20.7834 17.0474 20.7505 16.6903C20.7175 16.3332 20.7834 15.9981 20.9427 15.6794C21.1021 15.3608 21.3713 15.0531 21.7503 14.7565C22.3986 14.251 22.9864 14.0313 23.5084 14.1137C24.0303 14.1961 24.5137 14.5147 24.9587 15.0806L23.8215 15.9706C23.7391 15.8662 23.6457 15.7728 23.5358 15.6794H23.5413Z" fill="black"/>
<path d="M28.5902 10.6306L31.6172 14.7345L31.6392 14.7235L30.5734 9.7351L32.6061 8.81763L35.5124 15.2509L34.2488 15.8223L31.9304 10.6855L31.9084 10.6965L33.0182 16.3826L31.9469 16.8661L28.4143 12.2787L28.3924 12.2897L30.7108 17.4265L29.4472 17.9978L26.541 11.5645L28.5847 10.6416L28.5902 10.6306Z" fill="black"/>
<path d="M37.3583 7.6584L38.7043 9.74056L39.2482 7.32328L40.8688 7.0376L39.7591 10.7789L42.2148 13.9708L40.5447 14.262L39.0669 12.0919L38.4296 14.6356L36.7979 14.9212L38.0176 11.0811L35.7211 7.93859L37.3638 7.65291L37.3583 7.6584Z" fill="black"/>
<path d="M45.0222 13.7401C45.0222 13.9819 45.0112 14.2181 44.9783 14.4379C44.9453 14.6576 44.8739 14.8499 44.775 15.0147C44.6761 15.1795 44.5333 15.3114 44.3574 15.4158C44.1816 15.5201 43.9509 15.5916 43.6762 15.619L43.6652 14.9268C43.8465 14.8884 43.9839 14.795 44.0718 14.6411C44.1597 14.4873 44.2036 14.317 44.1981 14.1357V14.0093L43.6487 14.0203L43.6213 12.4766L45.0057 12.4546L45.0277 13.7401H45.0222Z" fill="black"/>
<path d="M49.8073 7.32336L51.2962 7.57059L50.1315 14.5368L48.6426 14.2895L49.8073 7.32336Z" fill="black"/>
<path d="M56.0318 13.938H56.0538L57.6635 9.38357L58.971 9.84505L56.6196 16.5036L54.999 15.9322L54.9056 10.6581H54.8836L53.2409 15.3114L51.9334 14.8499L54.2848 8.19141L55.9274 8.76826L56.0373 13.938H56.0318Z" fill="black"/>
<path d="M63.7781 13.9214C63.7891 13.6522 63.6517 13.4324 63.3606 13.2511C63.2012 13.1522 63.0419 13.1083 62.8881 13.1248C62.7343 13.1413 62.5695 13.2237 62.3991 13.3665C62.2288 13.5093 62.0366 13.7236 61.8333 14.0038C61.63 14.284 61.3938 14.6356 61.1301 15.0641C60.8499 15.5201 60.6356 15.8937 60.4983 16.1958C60.3554 16.498 60.273 16.7452 60.2456 16.943C60.2181 17.1408 60.2456 17.2946 60.3115 17.4154C60.3829 17.5308 60.4873 17.6352 60.6246 17.7176C60.74 17.789 60.8554 17.833 60.9762 17.8604C61.0971 17.8824 61.229 17.8604 61.3663 17.8C61.5037 17.7396 61.6575 17.6132 61.8223 17.4429C61.9871 17.2671 62.1684 17.0199 62.3717 16.6958L63.6572 17.4924C63.454 17.8165 63.2397 18.1077 63.0035 18.3659C62.7672 18.6241 62.5145 18.8164 62.2288 18.9482C61.9487 19.0746 61.6355 19.1185 61.2949 19.0801C60.9543 19.0416 60.5752 18.8878 60.1522 18.6296C59.6687 18.3329 59.3336 18.0198 59.1358 17.7011C58.9435 17.377 58.8501 17.0309 58.8721 16.6628C58.8886 16.2947 58.993 15.9046 59.1853 15.4981C59.3775 15.0916 59.6138 14.6575 59.8995 14.1961C60.1796 13.7401 60.4598 13.339 60.7455 12.9819C61.0257 12.6248 61.3279 12.3556 61.652 12.1743C61.9761 11.993 62.3222 11.9161 62.7068 11.9381C63.0859 11.9601 63.5199 12.1194 63.9978 12.4216C64.4538 12.7072 64.7725 12.9984 64.9483 13.3006C65.1241 13.6027 65.212 13.9049 65.212 14.2016C65.212 14.4982 65.1461 14.7839 65.0252 15.0531C64.9043 15.3223 64.7725 15.5695 64.6406 15.7838L63.3551 14.9872C63.6243 14.5477 63.7671 14.1961 63.7781 13.9324V13.9214Z" fill="black"/>
<path d="M64.4648 21.7117L63.41 20.8162L64.4099 19.6405L65.4647 20.536L64.4648 21.7117Z" fill="black"/>
</svg>
