<svg width="200" height="75" viewBox="0 0 200 75" fill="none" xmlns="http://www.w3.org/2000/svg">
<g clip-path="url(#clip0_6_301)">
<path d="M107.906 45.6554V58.3168H135.856V45.6554H129.487V12.7359H135.856V0H108.355L98.4638 17.8749L88.5725 0H61.0715V12.7359H67.441V45.6554H61.0715V58.3168H89.097V45.6554H83.7767V24.0566L94.3424 42.006H102.585L113.151 24.0566V45.6554H107.906Z" fill="#003087"/>
<path d="M196.328 12.7359H200V0H178.869V12.7359H182.765L175.871 21.9712L168.902 12.7359H172.799V0H143.275V12.7359H149.644L160.659 27.4081L146.946 45.5809H143.275V58.3168H164.406V45.5809H160.435L167.404 36.3456L174.372 45.5809H170.401V58.3168H200V45.5809H193.631L182.615 30.9831L196.328 12.7359Z" fill="#003087"/>
<path d="M53.728 58.3168V25.7696H32.2967L27.6508 35.8242H39.0408V45.6554H15.8112V12.7359H39.0408V20.4816H53.728V0H42.1881H10.1161L0 10.0546V48.3366L10.1161 58.3168H34.32L39.0408 53.6246V58.3168H53.728Z" fill="#003087"/>
<path d="M4.19629 64.3496L0.374634 72.9891H1.94826L2.84747 70.9037H6.96886L7.86808 72.9891H9.4417L5.62004 64.3496H4.19629ZM3.37201 69.5631L4.8707 66.1371L6.36939 69.5631H3.37201Z" fill="#003087"/>
<path d="M18.3589 69.5632H20.532V71.2017C20.3072 71.4251 19.9325 71.5741 19.6328 71.6485C19.2581 71.7975 18.8835 71.7975 18.5088 71.7975C18.0592 71.7975 17.6845 71.723 17.3098 71.5741C16.9352 71.4251 16.6354 71.2017 16.4106 70.9038C16.1858 70.6058 15.961 70.3079 15.8111 69.9355C15.6613 69.5632 15.5863 69.1163 15.5863 68.6694C15.5863 68.2225 15.6613 67.8501 15.8111 67.4777C15.961 67.1054 16.1858 66.8074 16.4106 66.5095C16.6354 66.2116 16.9352 65.9882 17.3098 65.8392C17.6845 65.6903 17.9842 65.6158 18.4338 65.6158C18.7336 65.6158 18.9584 65.6158 19.1832 65.6903C19.408 65.7647 19.6328 65.7647 19.7827 65.8392C20.0075 65.9137 20.1573 65.9882 20.3072 66.1371C20.4571 66.2861 20.6819 66.3606 20.8317 66.5095L21.8059 65.3923C21.5811 65.1689 21.3563 65.0199 21.1315 64.871C20.9067 64.722 20.6819 64.5731 20.3821 64.4986C20.0824 64.4241 19.8576 64.3496 19.5579 64.2752C19.2581 64.2007 18.8835 64.2007 18.5088 64.2007C17.8344 64.2007 17.2349 64.3496 16.7104 64.5731C16.1858 64.7965 15.6613 65.0944 15.2866 65.5413C14.9119 65.9137 14.6122 66.435 14.3874 66.9564C14.1626 67.4777 14.0876 68.0736 14.0876 68.6694C14.0876 69.2652 14.1626 69.8611 14.3874 70.4569C14.6122 70.9782 14.9119 71.4996 15.2866 71.872C15.6613 72.2444 16.1109 72.6168 16.7104 72.8402C17.2349 73.0636 17.9093 73.2126 18.5837 73.2126C18.9584 73.2126 19.3331 73.2126 19.6328 73.1381C20.0075 73.0636 20.3072 72.9892 20.6069 72.8402C20.9067 72.6913 21.2064 72.5423 21.4312 72.3933C21.656 72.2444 21.9558 72.0209 22.1056 71.872V68.297H18.4338L18.3589 69.5632Z" fill="#003087"/>
<path d="M26.7516 66.4351C26.2271 66.4351 25.7775 66.5095 25.4028 66.584C25.0282 66.6585 24.6535 66.8075 24.2788 66.9564L24.6535 68.1481C24.9532 67.9991 25.253 67.9246 25.5527 67.8502C25.8524 67.7757 26.2271 67.7757 26.5268 67.7757C27.0514 67.7757 27.4261 67.9246 27.7258 68.1481C28.0255 68.3715 28.1754 68.7439 28.1754 69.1908V69.3397C27.9506 69.2652 27.6509 69.1908 27.3511 69.1163C27.0514 69.0418 26.7516 69.0418 26.377 69.0418C26.0023 69.0418 25.6276 69.1163 25.3279 69.1908C25.0282 69.2653 24.7284 69.4142 24.5036 69.5632C24.2788 69.7121 24.054 69.9356 23.9791 70.2335C23.8292 70.5314 23.7543 70.8293 23.7543 71.1272C23.7543 71.4251 23.8292 71.723 23.9791 72.021C24.1289 72.2444 24.2788 72.4678 24.5036 72.6168C24.7284 72.7657 24.9532 72.9147 25.253 72.9892C25.5527 73.0637 25.8524 73.1381 26.1522 73.1381C26.6767 73.1381 27.0514 73.0637 27.4261 72.8402C27.8007 72.6913 28.0255 72.4678 28.2503 72.1699V72.9892H29.749V69.1163C29.749 68.2226 29.5242 67.5522 29.0746 67.1054C28.4751 66.6585 27.7258 66.4351 26.7516 66.4351ZM28.1754 70.6803C28.1754 70.9038 28.1005 71.0527 28.0255 71.2017C27.9506 71.3507 27.8007 71.4996 27.6509 71.6486C27.501 71.7975 27.2762 71.872 27.1263 71.9465C26.9015 72.021 26.6767 72.021 26.4519 72.021C26.0772 72.021 25.7775 71.9465 25.5527 71.7975C25.3279 71.6486 25.178 71.4251 25.178 71.0527C25.178 70.6803 25.3279 70.4569 25.5527 70.308C25.8524 70.159 26.1522 70.01 26.6767 70.01C26.9765 70.01 27.2013 70.01 27.501 70.0845C27.7258 70.159 27.9506 70.159 28.1754 70.2335V70.6803Z" fill="#003087"/>
<path d="M33.196 67.9991V66.5095H31.6973V72.9892H33.196V70.5314C33.196 70.0845 33.2709 69.7121 33.3458 69.4142C33.4208 69.1163 33.5706 68.8184 33.7954 68.5949C34.0202 68.3715 34.245 68.2225 34.4698 68.1481C34.6946 68.0736 35.0693 67.9991 35.3691 67.9991H35.444V66.4351C34.8445 66.4351 34.3949 66.5095 34.0202 66.8075C33.6456 67.1054 33.4208 67.4778 33.196 67.9991Z" fill="#003087"/>
<path d="M38.4413 64.0518H36.9426V72.9892H38.4413V64.0518Z" fill="#003087"/>
<path d="M43.2371 66.4351C42.7126 66.4351 42.263 66.5095 41.8883 66.584C41.5136 66.6585 41.139 66.8075 40.7643 66.9564L41.139 68.1481C41.4387 67.9991 41.7384 67.9246 42.0382 67.8502C42.3379 67.7757 42.6376 67.7757 43.0123 67.7757C43.5369 67.7757 43.9115 67.9246 44.2113 68.1481C44.511 68.3715 44.6609 68.7439 44.6609 69.1908V69.3397C44.4361 69.2652 44.1363 69.1908 43.8366 69.1163C43.5369 69.0418 43.2371 69.0418 42.8625 69.0418C42.4878 69.0418 42.1131 69.1163 41.8134 69.1908C41.5136 69.2653 41.2139 69.4142 40.9891 69.5632C40.7643 69.7121 40.5395 69.9356 40.4645 70.2335C40.3147 70.5314 40.2397 70.8293 40.2397 71.1272C40.2397 71.4251 40.3147 71.723 40.4645 72.021C40.6144 72.2444 40.7643 72.4678 40.9891 72.6168C41.2139 72.7657 41.4387 72.9147 41.7384 72.9892C42.0382 73.0637 42.3379 73.1381 42.6376 73.1381C43.1622 73.1381 43.5369 73.0637 43.9115 72.8402C44.2862 72.6913 44.511 72.4678 44.7358 72.1699V72.9892H46.2345V69.1163C46.2345 68.2226 46.0097 67.5522 45.5601 67.1054C44.9606 66.6585 44.2113 66.4351 43.2371 66.4351ZM44.6609 70.6803C44.6609 70.9038 44.5859 71.0527 44.511 71.2017C44.4361 71.3507 44.2862 71.4996 44.1363 71.6486C43.9865 71.7975 43.7617 71.872 43.6118 71.9465C43.387 72.021 43.1622 72.021 42.9374 72.021C42.5627 72.021 42.263 71.9465 42.0382 71.7975C41.8134 71.6486 41.6635 71.4251 41.6635 71.0527C41.6635 70.6803 41.8134 70.4569 42.0382 70.308C42.3379 70.159 42.6376 70.01 43.1622 70.01C43.4619 70.01 43.6867 70.01 43.9865 70.0845C44.2113 70.159 44.4361 70.159 44.6609 70.2335V70.6803Z" fill="#003087"/>
<path d="M51.7048 66.3606C51.48 66.3606 51.2552 66.3606 51.0304 66.4351C50.8056 66.5096 50.6557 66.584 50.5058 66.6585C50.356 66.733 50.2061 66.8819 50.0562 67.0309C49.9064 67.1799 49.8314 67.3288 49.6816 67.4778V66.4351H48.1829V72.9892H49.6816V69.3397C49.6816 68.8184 49.8314 68.446 50.0562 68.1481C50.356 67.8502 50.6557 67.7012 51.1053 67.7012C51.5549 67.7012 51.8546 67.8502 52.1544 68.1481C52.3792 68.446 52.5291 68.8184 52.5291 69.3397V72.9892H54.0277V68.8929C54.0277 68.1481 53.8029 67.5523 53.4283 67.1054C52.9787 66.6585 52.4541 66.3606 51.7048 66.3606Z" fill="#003087"/>
<path d="M60.9966 67.5523C60.7718 67.2543 60.4721 66.9564 60.0974 66.733C59.7227 66.5096 59.2731 66.3606 58.7486 66.3606C58.3739 66.3606 57.9993 66.4351 57.6246 66.584C57.2499 66.733 56.9502 66.9564 56.6504 67.2543C56.3507 67.5523 56.1259 67.9246 55.976 68.297C55.8262 68.7439 55.7512 69.1908 55.7512 69.7121C55.7512 70.2335 55.8262 70.7548 55.976 71.1272C56.1259 71.5741 56.3507 71.872 56.6504 72.1699C56.9502 72.4678 57.2499 72.6913 57.6246 72.8402C57.9993 72.9892 58.3739 73.0637 58.7486 73.0637C59.2731 73.0637 59.7227 72.9147 60.0974 72.6913C60.4721 72.4678 60.7718 72.1699 60.9966 71.7975V72.9892H62.4953V64.0518H60.9966V67.5523ZM60.8468 70.6059C60.7718 70.8293 60.622 71.0527 60.3972 71.2762C60.2473 71.4251 60.0225 71.5741 59.7977 71.7231C59.5729 71.7975 59.3481 71.872 59.0483 71.872C58.8235 71.872 58.5238 71.7975 58.299 71.7231C58.0742 71.6486 57.8494 71.4996 57.6995 71.2762C57.5496 71.1272 57.3998 70.9038 57.3248 70.6059C57.2499 70.308 57.175 70.0845 57.175 69.7121C57.175 69.4142 57.2499 69.1163 57.3248 68.8184C57.3998 68.595 57.5496 68.3715 57.6995 68.1481C57.8494 67.9991 58.0742 67.8502 58.299 67.7012C58.5238 67.6267 58.7486 67.5523 59.0483 67.5523C59.2731 67.5523 59.4979 67.6267 59.7977 67.7012C60.0225 67.7757 60.2473 67.9246 60.3972 68.1481C60.547 68.297 60.6969 68.5205 60.8468 68.8184C60.9217 69.0418 60.9966 69.3397 60.9966 69.7121C60.9966 70.0845 60.9217 70.3824 60.8468 70.6059Z" fill="#003087"/>
<path d="M69.5392 64.4241H68.0405V72.9891H69.5392V64.4241Z" fill="#003087"/>
<path d="M75.4589 66.3606C75.2341 66.3606 75.0093 66.3606 74.7845 66.4351C74.5597 66.5096 74.4098 66.584 74.26 66.6585C74.1101 66.733 73.9602 66.8819 73.8104 67.0309C73.6605 67.1799 73.5856 67.3288 73.4357 67.4778V66.4351H71.937V72.9892H73.4357V69.3397C73.4357 68.8184 73.5856 68.446 73.8104 68.1481C74.1101 67.8502 74.4098 67.7012 74.8595 67.7012C75.3091 67.7012 75.6088 67.8502 75.9085 68.1481C76.1333 68.446 76.2832 68.8184 76.2832 69.3397V72.9892H77.7819V68.8929C77.7819 68.1481 77.5571 67.5523 77.1824 67.1054C76.8077 66.6585 76.2083 66.3606 75.4589 66.3606Z" fill="#003087"/>
<path d="M84.7508 67.5523C84.526 67.2543 84.2262 66.9564 83.8516 66.733C83.4769 66.5096 83.0273 66.3606 82.5027 66.3606C82.1281 66.3606 81.7534 66.4351 81.3787 66.584C81.0041 66.733 80.7043 66.9564 80.4046 67.2543C80.1048 67.5523 79.88 67.9246 79.7302 68.297C79.5803 68.7439 79.5054 69.1908 79.5054 69.7121C79.5054 70.2335 79.5803 70.7548 79.7302 71.1272C79.88 71.5741 80.1048 71.872 80.4046 72.1699C80.7043 72.4678 81.0041 72.6913 81.3787 72.8402C81.7534 72.9892 82.1281 73.0637 82.5027 73.0637C83.0273 73.0637 83.4769 72.9147 83.8516 72.6913C84.2262 72.4678 84.526 72.1699 84.7508 71.7975V72.9892H86.2495V64.0518H84.7508V67.5523ZM84.6009 70.6059C84.526 70.8293 84.3761 71.0527 84.1513 71.2762C84.0014 71.4251 83.7766 71.5741 83.5518 71.7231C83.327 71.7975 83.1022 71.872 82.8025 71.872C82.5777 71.872 82.2779 71.7975 82.0531 71.7231C81.8283 71.6486 81.6035 71.4996 81.4537 71.2762C81.3038 71.1272 81.1539 70.9038 81.079 70.6059C81.0041 70.308 80.9291 70.0845 80.9291 69.7121C80.9291 69.4142 81.0041 69.1163 81.079 68.8184C81.1539 68.595 81.3038 68.3715 81.4537 68.1481C81.6035 67.9991 81.8283 67.8502 82.0531 67.7012C82.2779 67.6267 82.5027 67.5523 82.8025 67.5523C83.0273 67.5523 83.2521 67.6267 83.5518 67.7012C83.7766 67.7757 84.0014 67.9246 84.1513 68.1481C84.3012 68.297 84.451 68.5205 84.6009 68.8184C84.6758 69.0418 84.7508 69.3397 84.7508 69.7121C84.7508 70.0845 84.7508 70.3824 84.6009 70.6059Z" fill="#003087"/>
<path d="M92.6189 70.159C92.6189 70.6803 92.469 71.0527 92.2442 71.3506C91.9445 71.6485 91.6448 71.7975 91.1951 71.7975C90.7455 71.7975 90.4458 71.6485 90.1461 71.3506C89.9213 71.0527 89.7714 70.6803 89.7714 70.159V66.5095H88.2727V70.6058C88.2727 71.3506 88.4975 71.9465 88.8722 72.3933C89.2468 72.8402 89.8463 73.0636 90.5957 73.0636C91.1202 73.0636 91.4949 72.9147 91.7946 72.6912C92.0944 72.4678 92.3941 72.1699 92.6189 71.872V72.9892H94.1176V66.5095H92.6189V70.159Z" fill="#003087"/>
<path d="M100.262 69.7866C100.037 69.6376 99.8876 69.4887 99.5879 69.4142C99.3631 69.3397 99.1383 69.2652 98.8385 69.1908C98.6137 69.1163 98.4639 69.0418 98.314 69.0418C98.1641 68.9673 98.0143 68.8928 97.8644 68.8184C97.7145 68.7439 97.6396 68.6694 97.5646 68.5949C97.4897 68.5204 97.4148 68.446 97.4148 68.297C97.4148 68.0736 97.4897 67.9246 97.6396 67.8501C97.7895 67.7012 98.0143 67.7012 98.314 67.7012C98.6137 67.7012 98.9135 67.7757 99.2132 67.8501C99.5129 67.9246 99.8127 68.0736 100.187 68.297L100.787 67.2543C100.412 67.0309 100.037 66.8819 99.6628 66.733C99.2132 66.584 98.8385 66.5095 98.3889 66.5095C98.0892 66.5095 97.7895 66.584 97.4897 66.6585C97.19 66.733 96.9652 66.8819 96.7404 67.0309C96.5156 67.1798 96.3657 67.4033 96.2158 67.6267C96.066 67.8501 96.066 68.1481 96.066 68.446C96.066 68.7439 96.1409 69.0418 96.2158 69.1908C96.3657 69.4142 96.5156 69.5631 96.6654 69.7121C96.8902 69.8611 97.115 69.9355 97.3398 70.0845C97.5646 70.159 97.7894 70.2335 98.0892 70.3079C98.314 70.3824 98.4639 70.4569 98.6137 70.4569C98.7636 70.5314 98.9135 70.6058 99.0633 70.6058C99.2132 70.6803 99.2881 70.7548 99.3631 70.8293C99.438 70.9038 99.5129 71.0527 99.5129 71.1272C99.5129 71.3506 99.438 71.4996 99.2132 71.6485C99.0633 71.7975 98.7636 71.872 98.4639 71.872C98.0892 71.872 97.7895 71.7975 97.4148 71.6485C97.0401 71.4996 96.6654 71.3506 96.3657 71.0527L95.6913 72.0954C96.1409 72.3933 96.5156 72.6912 97.0401 72.8402C97.4897 72.9892 98.0142 73.0636 98.4639 73.0636C98.8385 73.0636 99.1383 72.9892 99.438 72.9147C99.7377 72.8402 99.9625 72.6912 100.187 72.5423C100.412 72.3933 100.562 72.1699 100.712 71.872C100.862 71.6485 100.862 71.3506 100.862 70.9782C100.862 70.6803 100.787 70.4569 100.712 70.2335C100.637 70.0845 100.412 69.9355 100.262 69.7866Z" fill="#003087"/>
<path d="M104.459 64.7219H102.96V66.5094H102.136V67.7755H102.96V71.2016C102.96 71.574 103.035 71.8719 103.11 72.0953C103.185 72.3187 103.335 72.5422 103.484 72.6911C103.634 72.8401 103.859 72.9146 104.084 72.9891C104.309 73.0635 104.534 73.0635 104.833 73.0635C105.133 73.0635 105.358 73.0635 105.583 72.9891C105.807 72.9146 106.032 72.8401 106.182 72.7656V71.574C105.882 71.7229 105.583 71.7974 105.283 71.7974C105.058 71.7974 104.833 71.7229 104.683 71.574C104.534 71.425 104.459 71.276 104.459 70.9781V67.7755H106.182V66.5094H104.459V64.7219Z" fill="#003087"/>
<path d="M109.404 67.9991V66.5095H107.906V72.9892H109.404V70.5314C109.404 70.0845 109.479 69.7121 109.554 69.4142C109.629 69.1163 109.779 68.8184 110.004 68.5949C110.229 68.3715 110.453 68.2225 110.678 68.1481C110.903 68.0736 111.278 67.9991 111.577 67.9991H111.652V66.4351C111.053 66.4351 110.603 66.5095 110.229 66.8075C109.929 67.1054 109.629 67.4778 109.404 67.9991Z" fill="#003087"/>
<path d="M114.8 64.1262H113.151V65.5413H114.8V64.1262Z" fill="#003087"/>
<path d="M114.725 66.5095H113.226V72.9892H114.725V66.5095Z" fill="#003087"/>
<path d="M121.993 67.4778C121.768 67.1798 121.394 66.8819 121.019 66.733C120.644 66.5095 120.195 66.4351 119.67 66.4351C119.221 66.4351 118.771 66.5095 118.396 66.733C118.022 66.8819 117.647 67.1798 117.422 67.4778C117.123 67.7757 116.898 68.1481 116.748 68.5205C116.598 68.9673 116.523 69.3397 116.523 69.8611C116.523 70.3824 116.598 70.8293 116.748 71.2762C116.898 71.723 117.123 72.021 117.422 72.3189C117.722 72.6168 118.097 72.8402 118.471 72.9892C118.846 73.1381 119.296 73.2126 119.82 73.2126C120.42 73.2126 120.944 73.1381 121.394 72.9147C121.843 72.6913 122.218 72.3934 122.518 72.021L121.619 71.2762C121.319 71.4996 121.094 71.723 120.794 71.872C120.495 72.021 120.195 72.0954 119.82 72.0954C119.371 72.0954 118.921 71.9465 118.621 71.6486C118.247 71.3506 118.097 70.9783 117.947 70.4569H122.743C122.743 70.3824 122.743 70.308 122.743 70.2335C122.743 70.159 122.743 70.0845 122.743 70.01C122.743 69.5632 122.668 69.1163 122.518 68.6694C122.443 68.1481 122.293 67.7757 121.993 67.4778ZM117.947 69.3397C118.022 68.8184 118.172 68.446 118.471 68.0736C118.771 67.7757 119.146 67.6267 119.595 67.6267C119.82 67.6267 120.045 67.7012 120.27 67.7757C120.495 67.8502 120.644 67.9991 120.794 68.1481C120.944 68.297 121.019 68.446 121.094 68.6694C121.169 68.8929 121.244 69.1163 121.244 69.3397H117.947Z" fill="#003087"/>
<path d="M128.513 69.7866C128.288 69.6376 128.138 69.4887 127.838 69.4142C127.613 69.3397 127.389 69.2652 127.089 69.1908C126.864 69.1163 126.714 69.0418 126.564 69.0418C126.414 68.9673 126.265 68.8928 126.115 68.8184C125.965 68.7439 125.89 68.6694 125.815 68.5949C125.74 68.5204 125.665 68.446 125.665 68.297C125.665 68.0736 125.74 67.9246 125.89 67.8501C126.04 67.7012 126.264 67.7012 126.564 67.7012C126.864 67.7012 127.164 67.7757 127.463 67.8501C127.763 67.9246 128.138 68.0736 128.438 68.297L129.037 67.2543C128.662 67.0309 128.288 66.8819 127.913 66.733C127.463 66.584 127.089 66.5095 126.639 66.5095C126.339 66.5095 126.04 66.584 125.74 66.6585C125.44 66.733 125.215 66.8819 124.991 67.0309C124.766 67.1798 124.616 67.4033 124.466 67.6267C124.316 67.8501 124.316 68.1481 124.316 68.446C124.316 68.7439 124.391 69.0418 124.466 69.1908C124.616 69.4142 124.766 69.5631 124.916 69.7121C125.14 69.8611 125.365 69.9355 125.59 70.0845C125.815 70.159 126.04 70.2335 126.339 70.3079C126.564 70.3824 126.714 70.4569 126.864 70.4569C127.014 70.5314 127.164 70.6058 127.314 70.6058C127.463 70.6803 127.538 70.7548 127.613 70.8293C127.688 70.9038 127.763 71.0527 127.763 71.1272C127.763 71.3506 127.688 71.4996 127.463 71.6485C127.239 71.7975 127.014 71.872 126.714 71.872C126.339 71.872 126.04 71.7975 125.665 71.6485C125.29 71.4996 124.916 71.3506 124.616 71.0527L123.942 72.0954C124.391 72.3933 124.766 72.6912 125.29 72.8402C125.74 72.9892 126.265 73.0636 126.714 73.0636C127.014 73.0636 127.389 72.9892 127.688 72.9147C127.988 72.8402 128.213 72.6912 128.438 72.5423C128.662 72.3933 128.812 72.1699 128.962 71.872C129.112 71.6485 129.112 71.3506 129.112 70.9782C129.112 70.6803 129.037 70.4569 128.962 70.2335C128.812 70.0845 128.662 69.9355 128.513 69.7866Z" fill="#003087"/>
<path d="M139.678 68.8928C139.453 68.6694 139.153 68.5204 138.779 68.3715C138.404 68.2225 138.029 68.0736 137.58 67.9991C137.13 67.9246 136.83 67.7757 136.531 67.7012C136.231 67.6267 136.081 67.4777 135.931 67.4033C135.781 67.3288 135.706 67.1798 135.631 67.0309C135.556 66.8819 135.556 66.733 135.556 66.584C135.556 66.2861 135.706 66.0627 135.931 65.8392C136.156 65.6158 136.531 65.5413 136.98 65.5413C137.355 65.5413 137.729 65.6158 138.179 65.7647C138.554 65.9137 138.928 66.1371 139.378 66.435L140.202 65.3179C139.753 64.9455 139.303 64.722 138.779 64.4986C138.254 64.3496 137.729 64.2007 137.055 64.2007C136.605 64.2007 136.231 64.2752 135.856 64.3496C135.481 64.4986 135.182 64.6476 134.957 64.871C134.732 65.0944 134.507 65.3923 134.357 65.6903C134.208 65.9882 134.133 66.3606 134.133 66.733C134.133 67.1054 134.208 67.4777 134.357 67.7757C134.507 68.0736 134.657 68.297 134.882 68.5204C135.107 68.7439 135.406 68.8928 135.781 69.0418C136.156 69.1908 136.531 69.2652 136.98 69.4142C137.355 69.4887 137.729 69.6376 137.954 69.7121C138.179 69.7866 138.404 69.8611 138.554 70.01C138.704 70.0845 138.779 70.2335 138.853 70.3824C138.928 70.5314 138.928 70.6803 138.928 70.8293C138.928 71.2017 138.779 71.4251 138.479 71.6485C138.179 71.872 137.804 71.9465 137.355 71.9465C136.83 71.9465 136.306 71.872 135.931 71.6485C135.481 71.4251 135.107 71.2017 134.657 70.8293L133.758 71.9465C134.282 72.3933 134.807 72.7657 135.481 72.9892C136.081 73.2126 136.755 73.3616 137.43 73.3616C137.879 73.3616 138.329 73.2871 138.704 73.2126C139.078 73.0636 139.378 72.9147 139.678 72.6913C139.977 72.4678 140.127 72.1699 140.277 71.872C140.427 71.5741 140.502 71.2017 140.502 70.7548C140.502 70.3824 140.427 70.0845 140.352 69.7866C140.127 69.3397 139.903 69.1163 139.678 68.8928Z" fill="#003087"/>
<path d="M146.572 70.159C146.572 70.6803 146.422 71.0527 146.197 71.3506C145.897 71.6485 145.598 71.7975 145.148 71.7975C144.698 71.7975 144.399 71.6485 144.099 71.3506C143.874 71.0527 143.724 70.6803 143.724 70.159V66.5095H142.226V70.6058C142.226 71.3506 142.45 71.9465 142.825 72.3933C143.2 72.8402 143.799 73.0636 144.549 73.0636C145.073 73.0636 145.448 72.9147 145.748 72.6912C146.047 72.4678 146.347 72.1699 146.572 71.872V72.9892H148.07V66.5095H146.572V70.159Z" fill="#003087"/>
<path d="M155.939 67.2543C155.639 66.9564 155.339 66.733 154.964 66.584C154.59 66.4351 154.215 66.3606 153.84 66.3606C153.316 66.3606 152.866 66.5096 152.492 66.733C152.117 66.9564 151.817 67.2543 151.592 67.6267V64.0518H150.094V72.9892H151.592V71.9465C151.817 72.2444 152.117 72.5423 152.492 72.7658C152.866 72.9892 153.316 73.1382 153.84 73.1382C154.215 73.1382 154.59 73.0637 154.964 72.9147C155.339 72.7658 155.639 72.5423 155.939 72.2444C156.238 71.9465 156.463 71.5741 156.613 71.2017C156.763 70.7548 156.838 70.308 156.838 69.7866C156.838 69.2653 156.763 68.7439 156.613 68.3715C156.463 67.9246 156.238 67.5523 155.939 67.2543ZM155.264 70.6059C155.189 70.8293 155.039 71.0527 154.889 71.2762C154.74 71.4251 154.515 71.5741 154.29 71.7231C154.065 71.7975 153.84 71.872 153.541 71.872C153.316 71.872 153.016 71.7975 152.791 71.7231C152.566 71.6486 152.342 71.4996 152.192 71.2762C152.042 71.1272 151.892 70.9038 151.742 70.6059C151.667 70.3824 151.592 70.0845 151.592 69.7121C151.592 69.4142 151.667 69.1163 151.742 68.8184C151.817 68.595 151.967 68.3715 152.192 68.1481C152.342 67.9991 152.566 67.8502 152.791 67.7012C153.016 67.6267 153.241 67.5523 153.541 67.5523C153.765 67.5523 154.065 67.6267 154.29 67.7012C154.515 67.7757 154.74 67.9246 154.889 68.1481C155.039 68.297 155.189 68.5205 155.264 68.8184C155.339 69.0418 155.414 69.3397 155.414 69.7121C155.414 70.0845 155.339 70.3824 155.264 70.6059Z" fill="#003087"/>
<path d="M162.608 69.7866C162.383 69.6376 162.233 69.4887 161.933 69.4142C161.709 69.3397 161.484 69.2652 161.184 69.1908C160.959 69.1163 160.809 69.0418 160.659 69.0418C160.51 68.9673 160.36 68.8928 160.21 68.8184C160.06 68.7439 159.985 68.6694 159.91 68.5949C159.835 68.5204 159.76 68.446 159.76 68.297C159.76 68.0736 159.835 67.9246 159.985 67.8501C160.135 67.7012 160.36 67.7012 160.659 67.7012C160.959 67.7012 161.259 67.7757 161.559 67.8501C161.858 67.9246 162.233 68.0736 162.533 68.297L163.132 67.2543C162.758 67.0309 162.383 66.8819 162.008 66.733C161.559 66.584 161.184 66.5095 160.734 66.5095C160.435 66.5095 160.135 66.584 159.835 66.6585C159.535 66.733 159.311 66.8819 159.086 67.0309C158.861 67.1798 158.711 67.4033 158.561 67.6267C158.411 67.8501 158.411 68.1481 158.411 68.446C158.411 68.7439 158.486 69.0418 158.561 69.1908C158.711 69.4142 158.861 69.5631 159.011 69.7121C159.236 69.8611 159.461 69.9355 159.685 70.0845C159.91 70.159 160.135 70.2335 160.435 70.3079C160.659 70.3824 160.809 70.4569 160.959 70.4569C161.109 70.5314 161.259 70.6058 161.409 70.6058C161.559 70.6803 161.634 70.7548 161.709 70.8293C161.783 70.9038 161.858 71.0527 161.858 71.1272C161.858 71.3506 161.783 71.4996 161.559 71.6485C161.334 71.7975 161.109 71.872 160.809 71.872C160.435 71.872 160.135 71.7975 159.76 71.6485C159.386 71.4996 159.011 71.3506 158.711 71.0527L158.037 72.0954C158.486 72.3933 158.861 72.6912 159.386 72.8402C159.835 72.9892 160.36 73.0636 160.809 73.0636C161.184 73.0636 161.484 72.9892 161.783 72.9147C162.083 72.8402 162.308 72.6912 162.533 72.5423C162.758 72.3933 162.907 72.1699 163.057 71.872C163.207 71.6485 163.207 71.3506 163.207 70.9782C163.207 70.6803 163.132 70.4569 163.057 70.2335C162.982 70.0845 162.758 69.9355 162.608 69.7866Z" fill="#003087"/>
<path d="M166.654 64.1262H165.006V65.5413H166.654V64.1262Z" fill="#003087"/>
<path d="M166.504 66.5095H165.006V72.9892H166.504V66.5095Z" fill="#003087"/>
<path d="M173.623 67.5523C173.398 67.2543 173.099 66.9564 172.724 66.733C172.349 66.5096 171.9 66.3606 171.375 66.3606C171 66.3606 170.626 66.4351 170.251 66.584C169.876 66.733 169.577 66.9564 169.277 67.2543C168.977 67.5523 168.752 67.9246 168.602 68.297C168.453 68.7439 168.378 69.1908 168.378 69.7121C168.378 70.2335 168.453 70.7548 168.602 71.1272C168.752 71.5741 168.977 71.872 169.277 72.1699C169.577 72.4678 169.876 72.6913 170.251 72.8402C170.626 72.9892 171 73.0637 171.375 73.0637C171.9 73.0637 172.349 72.9147 172.724 72.6913C173.099 72.4678 173.398 72.1699 173.623 71.7975V72.9892H175.122V64.0518H173.623V67.5523ZM173.473 70.6059C173.398 70.8293 173.248 71.0527 173.024 71.2762C172.874 71.4251 172.649 71.5741 172.424 71.7231C172.199 71.7975 171.975 71.872 171.675 71.872C171.45 71.872 171.15 71.7975 170.925 71.7231C170.701 71.6486 170.476 71.4996 170.326 71.2762C170.176 71.1272 170.026 70.9038 169.951 70.6059C169.876 70.3824 169.801 70.0845 169.801 69.7121C169.801 69.4142 169.876 69.1163 169.951 68.8184C170.026 68.595 170.176 68.3715 170.326 68.1481C170.476 67.9991 170.701 67.8502 170.925 67.7012C171.15 67.6267 171.375 67.5523 171.675 67.5523C171.9 67.5523 172.124 67.6267 172.424 67.7012C172.649 67.7757 172.874 67.9246 173.024 68.1481C173.173 68.297 173.323 68.5205 173.473 68.8184C173.548 69.0418 173.623 69.3397 173.623 69.7121C173.623 70.0845 173.548 70.3824 173.473 70.6059Z" fill="#003087"/>
<path d="M178.794 64.1262H177.145V65.5413H178.794V64.1262Z" fill="#003087"/>
<path d="M178.719 66.5095H177.22V72.9892H178.719V66.5095Z" fill="#003087"/>
<path d="M183.514 66.4351C182.99 66.4351 182.54 66.5095 182.166 66.584C181.791 66.6585 181.416 66.8075 181.042 66.9564L181.416 68.1481C181.716 67.9991 182.016 67.9246 182.316 67.8502C182.615 67.7757 182.915 67.7757 183.29 67.7757C183.814 67.7757 184.189 67.9246 184.489 68.1481C184.788 68.3715 184.938 68.7439 184.938 69.1908V69.3397C184.713 69.2652 184.414 69.1908 184.114 69.1163C183.814 69.0418 183.514 69.0418 183.14 69.0418C182.765 69.0418 182.39 69.1163 182.091 69.1908C181.791 69.2653 181.491 69.4142 181.266 69.5632C181.042 69.7121 180.817 69.9356 180.742 70.2335C180.592 70.5314 180.517 70.8293 180.517 71.1272C180.517 71.4251 180.592 71.723 180.742 72.021C180.892 72.2444 181.042 72.4678 181.266 72.6168C181.491 72.7657 181.716 72.9147 182.016 72.9892C182.316 73.0637 182.615 73.1381 182.915 73.1381C183.44 73.1381 183.814 73.0637 184.189 72.8402C184.564 72.6913 184.788 72.4678 185.013 72.1699V72.9892H186.512V69.1163C186.512 68.2226 186.287 67.5522 185.837 67.1054C185.163 66.6585 184.489 66.4351 183.514 66.4351ZM184.938 70.6803C184.938 70.9038 184.863 71.0527 184.788 71.2017C184.713 71.3507 184.564 71.4996 184.414 71.6486C184.264 71.7975 184.039 71.872 183.889 71.9465C183.664 72.021 183.44 72.021 183.215 72.021C182.84 72.021 182.54 71.9465 182.316 71.7975C182.091 71.6486 181.941 71.4251 181.941 71.0527C181.941 70.6803 182.091 70.4569 182.316 70.308C182.615 70.159 182.915 70.01 183.44 70.01C183.739 70.01 183.964 70.01 184.264 70.0845C184.489 70.159 184.713 70.159 184.938 70.2335V70.6803Z" fill="#003087"/>
<path d="M189.884 67.9991V66.5095H188.385V72.9892H189.884V70.5314C189.884 70.0845 189.959 69.7121 190.034 69.4142C190.109 69.1163 190.258 68.8184 190.483 68.5949C190.708 68.3715 190.933 68.2225 191.158 68.1481C191.457 68.0736 191.757 67.9991 192.057 67.9991H192.132V66.4351C191.532 66.4351 191.083 66.5095 190.708 66.8075C190.408 67.1054 190.109 67.4778 189.884 67.9991Z" fill="#003087"/>
<path d="M196.778 71.3506L194.904 66.5095H193.331L196.028 72.9892C195.879 73.2871 195.804 73.436 195.654 73.585C195.504 73.6595 195.354 73.7339 195.129 73.7339C194.979 73.7339 194.829 73.7339 194.68 73.6595C194.53 73.585 194.38 73.585 194.23 73.5105L193.705 74.6277C193.93 74.7766 194.155 74.8511 194.38 74.9256C194.605 75.0001 194.904 75.0001 195.204 75.0001C195.504 75.0001 195.729 75.0001 195.879 74.9256C196.103 74.8511 196.253 74.7766 196.478 74.6277C196.628 74.4787 196.778 74.3298 196.928 74.1063C197.078 73.8829 197.227 73.585 197.302 73.2871L199.925 66.6585H198.351L196.778 71.3506Z" fill="#003087"/>
</g>
<defs>
<clipPath id="clip0_6_301">
<rect width="200" height="75" fill="white"/>
</clipPath>
</defs>
</svg>
