<svg width="233" height="88" viewBox="0 0 233 88" fill="none" xmlns="http://www.w3.org/2000/svg">
<path d="M125.71 53.1886V67.9391H158.272V53.1886H150.852V14.8373H158.272V0H126.234L114.71 20.8242L103.187 0H71.1484V14.8373H78.5688V53.1886H71.1484V67.9391H103.798V53.1886H97.5999V28.0259L109.909 48.9369H119.512L131.821 28.0259V53.1886H125.71Z" fill="#003087"/>
<path d="M228.722 14.8373H233V0H208.382V14.8373H212.921L204.89 25.5965L196.771 14.8373H201.311V0H166.915V14.8373H174.335L187.168 31.9305L171.193 53.1018H166.915V67.9391H191.533V53.1018H186.906L195.025 42.3426L203.144 53.1018H198.517V67.9391H233V53.1018H225.58L212.747 36.0953L228.722 14.8373Z" fill="#003087"/>
<path d="M62.5931 67.9391V30.0216H37.6257L32.2132 41.7352H45.4826V53.1886H18.42V14.8373H45.4826V23.8611H62.5931V0H49.1491H11.7853L0 11.7136V56.3122L11.7853 67.9391H39.9828L45.4826 62.4727V67.9391H62.5931Z" fill="#003087"/>
<path d="M4.88875 74.9672L0.436523 85.0322H2.26979L3.31738 82.6027H8.1188L9.16638 85.0322H10.9997L6.54743 74.9672H4.88875ZM3.92847 81.0409L5.67444 77.0496L7.42041 81.0409H3.92847Z" fill="#003087"/>
<path d="M21.388 81.0407H23.9197V82.9496C23.6578 83.2099 23.2213 83.3835 22.8721 83.4702C22.4356 83.6438 21.9991 83.6438 21.5626 83.6438C21.0388 83.6438 20.6023 83.557 20.1658 83.3835C19.7293 83.2099 19.3801 82.9496 19.1182 82.6025C18.8563 82.2555 18.5945 81.9084 18.4199 81.4746C18.2453 81.0407 18.158 80.5201 18.158 79.9995C18.158 79.4789 18.2453 79.0451 18.4199 78.6112C18.5945 78.1774 18.8563 77.8303 19.1182 77.4833C19.3801 77.1362 19.7293 76.8759 20.1658 76.7023C20.6023 76.5288 20.9515 76.442 21.4753 76.442C21.8245 76.442 22.0864 76.442 22.3483 76.5288C22.6102 76.6156 22.8721 76.6156 23.0467 76.7023C23.3086 76.7891 23.4832 76.8759 23.6578 77.0494C23.8324 77.223 24.0943 77.3097 24.2689 77.4833L25.4037 76.1817C25.1419 75.9214 24.88 75.7479 24.6181 75.5744C24.3562 75.4008 24.0943 75.2273 23.7451 75.1405C23.3959 75.0538 23.134 74.967 22.7848 74.8802C22.4356 74.7935 21.9991 74.7935 21.5626 74.7935C20.7769 74.7935 20.0785 74.967 19.4674 75.2273C18.8563 75.4876 18.2453 75.8347 17.8088 76.3553C17.3723 76.7891 17.0231 77.3965 16.7612 78.0039C16.4993 78.6112 16.412 79.3054 16.412 79.9995C16.412 80.6937 16.4993 81.3878 16.7612 82.0819C17.0231 82.6893 17.3723 83.2967 17.8088 83.7305C18.2453 84.1644 18.7691 84.5982 19.4674 84.8585C20.0785 85.1188 20.8642 85.2923 21.6499 85.2923C22.0864 85.2923 22.5229 85.2923 22.8721 85.2056C23.3086 85.1188 23.6578 85.032 24.007 84.8585C24.3562 84.685 24.7054 84.5114 24.9673 84.3379C25.2291 84.1644 25.5783 83.9041 25.7529 83.7305V79.5657H21.4753L21.388 81.0407Z" fill="#003087"/>
<path d="M31.1655 77.3967C30.5544 77.3967 30.0306 77.4835 29.5942 77.5703C29.1577 77.657 28.7212 77.8306 28.2847 78.0041L28.7212 79.3924C29.0704 79.2189 29.4196 79.1321 29.7687 79.0453C30.1179 78.9585 30.5544 78.9585 30.9036 78.9585C31.5147 78.9585 31.9512 79.1321 32.3004 79.3924C32.6496 79.6527 32.8242 80.0865 32.8242 80.6071V80.7807C32.5623 80.6939 32.2131 80.6071 31.8639 80.5204C31.5147 80.4336 31.1655 80.4336 30.729 80.4336C30.2925 80.4336 29.856 80.5204 29.5069 80.6071C29.1577 80.6939 28.8085 80.8674 28.5466 81.041C28.2847 81.2145 28.0228 81.4748 27.9355 81.8219C27.7609 82.169 27.6736 82.516 27.6736 82.8631C27.6736 83.2102 27.7609 83.5572 27.9355 83.9043C28.1101 84.1646 28.2847 84.4249 28.5466 84.5984C28.8085 84.772 29.0704 84.9455 29.4196 85.0323C29.7688 85.1191 30.1179 85.2058 30.4671 85.2058C31.0782 85.2058 31.5147 85.1191 31.9512 84.8587C32.3877 84.6852 32.6496 84.4249 32.9115 84.0778V85.0323H34.6575V80.5204C34.6575 79.4792 34.3956 78.6982 33.8718 78.1776C33.1734 77.657 32.3004 77.3967 31.1655 77.3967ZM32.8242 82.3425C32.8242 82.6028 32.7369 82.7763 32.6496 82.9499C32.5623 83.1234 32.3877 83.2969 32.2131 83.4705C32.0385 83.644 31.7766 83.7308 31.602 83.8175C31.3401 83.9043 31.0782 83.9043 30.8163 83.9043C30.3798 83.9043 30.0306 83.8175 29.7687 83.644C29.5069 83.4705 29.3323 83.2102 29.3323 82.7763C29.3323 82.3425 29.5069 82.0822 29.7687 81.9086C30.1179 81.7351 30.4671 81.5616 31.0782 81.5616C31.4274 81.5616 31.6893 81.5616 32.0385 81.6483C32.3004 81.7351 32.5623 81.7351 32.8242 81.8219V82.3425Z" fill="#003087"/>
<path d="M38.6731 79.2189V77.4835H36.9271V85.0323H38.6731V82.1689C38.6731 81.6483 38.7604 81.2145 38.8477 80.8674C38.935 80.5204 39.1096 80.1733 39.3715 79.913C39.6334 79.6527 39.8953 79.4792 40.1572 79.3924C40.4191 79.3056 40.8556 79.2189 41.2048 79.2189H41.2921V77.3967C40.5937 77.3967 40.0699 77.4835 39.6334 77.8306C39.1969 78.1776 38.935 78.6115 38.6731 79.2189Z" fill="#003087"/>
<path d="M44.7843 74.6201H43.0383V85.0322H44.7843V74.6201Z" fill="#003087"/>
<path d="M50.3715 77.3967C49.7604 77.3967 49.2366 77.4835 48.8001 77.5703C48.3636 77.657 47.9271 77.8306 47.4906 78.0041L47.9271 79.3924C48.2763 79.2189 48.6255 79.1321 48.9747 79.0453C49.3239 78.9585 49.6731 78.9585 50.1096 78.9585C50.7207 78.9585 51.1571 79.1321 51.5063 79.3924C51.8555 79.6527 52.0301 80.0865 52.0301 80.6071V80.7807C51.7682 80.6939 51.419 80.6071 51.0698 80.5204C50.7207 80.4336 50.3715 80.4336 49.935 80.4336C49.4985 80.4336 49.062 80.5204 48.7128 80.6071C48.3636 80.6939 48.0144 80.8674 47.7525 81.041C47.4906 81.2145 47.2287 81.4748 47.1414 81.8219C46.9668 82.169 46.8795 82.516 46.8795 82.8631C46.8795 83.2102 46.9668 83.5572 47.1414 83.9043C47.316 84.1646 47.4906 84.4249 47.7525 84.5984C48.0144 84.772 48.2763 84.9455 48.6255 85.0323C48.9747 85.1191 49.3239 85.2058 49.6731 85.2058C50.2842 85.2058 50.7207 85.1191 51.1571 84.8587C51.5936 84.6852 51.8555 84.4249 52.1174 84.0778V85.0323H53.8634V80.5204C53.8634 79.4792 53.6015 78.6982 53.0777 78.1776C52.3793 77.657 51.5063 77.3967 50.3715 77.3967ZM52.0301 82.3425C52.0301 82.6028 51.9428 82.7763 51.8555 82.9499C51.7682 83.1234 51.5936 83.2969 51.419 83.4705C51.2444 83.644 50.9826 83.7308 50.808 83.8175C50.5461 83.9043 50.2842 83.9043 50.0223 83.9043C49.5858 83.9043 49.2366 83.8175 48.9747 83.644C48.7128 83.4705 48.5382 83.2102 48.5382 82.7763C48.5382 82.3425 48.7128 82.0822 48.9747 81.9086C49.3239 81.7351 49.6731 81.5616 50.2842 81.5616C50.6334 81.5616 50.8953 81.5616 51.2444 81.6483C51.5063 81.7351 51.7682 81.7351 52.0301 81.8219V82.3425Z" fill="#003087"/>
<path d="M60.2362 77.3101C59.9743 77.3101 59.7124 77.3101 59.4505 77.3968C59.1886 77.4836 59.014 77.5704 58.8394 77.6571C58.6648 77.7439 58.4902 77.9174 58.3156 78.091C58.141 78.2645 58.0537 78.438 57.8792 78.6116V77.3968H56.1332V85.0324H57.8792V80.7808C57.8792 80.1734 58.0537 79.7396 58.3156 79.3925C58.6648 79.0454 59.014 78.8719 59.5378 78.8719C60.0616 78.8719 60.4108 79.0454 60.76 79.3925C61.0219 79.7396 61.1965 80.1734 61.1965 80.7808V85.0324H62.9425V80.2602C62.9425 79.3925 62.6806 78.6983 62.2441 78.1777C61.7203 77.6571 61.1092 77.3101 60.2362 77.3101Z" fill="#003087"/>
<path d="M71.0611 78.6982C70.7992 78.3511 70.45 78.0041 70.0135 77.7438C69.577 77.4834 69.0532 77.3099 68.4421 77.3099C68.0056 77.3099 67.5692 77.3967 67.1327 77.5702C66.6962 77.7438 66.347 78.0041 65.9978 78.3511C65.6486 78.6982 65.3867 79.132 65.2121 79.5659C65.0375 80.0865 64.9502 80.6071 64.9502 81.2145C64.9502 81.8218 65.0375 82.4292 65.2121 82.863C65.3867 83.3836 65.6486 83.7307 65.9978 84.0778C66.347 84.4249 66.6962 84.6852 67.1327 84.8587C67.5692 85.0322 68.0056 85.119 68.4421 85.119C69.0532 85.119 69.577 84.9455 70.0135 84.6852C70.45 84.4249 70.7992 84.0778 71.0611 83.644V85.0322H72.8071V74.6201H71.0611V78.6982ZM70.8865 82.2557C70.7992 82.516 70.6246 82.7763 70.3627 83.0366C70.1881 83.2101 69.9262 83.3837 69.6643 83.5572C69.4024 83.644 69.1405 83.7307 68.7913 83.7307C68.5294 83.7307 68.1802 83.644 67.9183 83.5572C67.6565 83.4704 67.3946 83.2969 67.22 83.0366C67.0454 82.863 66.8708 82.6027 66.7835 82.2557C66.6962 81.9086 66.6089 81.6483 66.6089 81.2145C66.6089 80.8674 66.6962 80.5203 66.7835 80.1732C66.8708 79.9129 67.0454 79.6526 67.22 79.3923C67.3946 79.2188 67.6565 79.0453 67.9183 78.8717C68.1802 78.785 68.4421 78.6982 68.7913 78.6982C69.0532 78.6982 69.3151 78.785 69.6643 78.8717C69.9262 78.9585 70.1881 79.132 70.3627 79.3923C70.5373 79.5659 70.7119 79.8262 70.8865 80.1732C70.9738 80.4336 71.0611 80.7806 71.0611 81.2145C71.0611 81.6483 70.9738 81.9954 70.8865 82.2557Z" fill="#003087"/>
<path d="M81.0131 75.0538H79.2671V85.0321H81.0131V75.0538Z" fill="#003087"/>
<path d="M87.9098 77.3101C87.6479 77.3101 87.386 77.3101 87.1241 77.3968C86.8622 77.4836 86.6876 77.5704 86.513 77.6571C86.3384 77.7439 86.1638 77.9174 85.9892 78.091C85.8146 78.2645 85.7273 78.438 85.5527 78.6116V77.3968H83.8068V85.0324H85.5527V80.7808C85.5527 80.1734 85.7273 79.7396 85.9892 79.3925C86.3384 79.0454 86.6876 78.8719 87.2114 78.8719C87.7352 78.8719 88.0844 79.0454 88.4336 79.3925C88.6955 79.7396 88.8701 80.1734 88.8701 80.7808V85.0324H90.6161V80.2602C90.6161 79.3925 90.3542 78.6983 89.9177 78.1777C89.4812 77.6571 88.7828 77.3101 87.9098 77.3101Z" fill="#003087"/>
<path d="M98.7347 78.6982C98.4728 78.3511 98.1236 78.0041 97.6871 77.7438C97.2506 77.4834 96.7268 77.3099 96.1157 77.3099C95.6792 77.3099 95.2427 77.3967 94.8062 77.5702C94.3698 77.7438 94.0206 78.0041 93.6714 78.3511C93.3222 78.6982 93.0603 79.132 92.8857 79.5659C92.7111 80.0865 92.6238 80.6071 92.6238 81.2145C92.6238 81.8218 92.7111 82.4292 92.8857 82.863C93.0603 83.3836 93.3222 83.7307 93.6714 84.0778C94.0206 84.4249 94.3698 84.6852 94.8062 84.8587C95.2427 85.0322 95.6792 85.119 96.1157 85.119C96.7268 85.119 97.2506 84.9455 97.6871 84.6852C98.1236 84.4249 98.4728 84.0778 98.7347 83.644V85.0322H100.481V74.6201H98.7347V78.6982ZM98.5601 82.2557C98.4728 82.516 98.2982 82.7763 98.0363 83.0366C97.8617 83.2101 97.5998 83.3837 97.3379 83.5572C97.076 83.644 96.8141 83.7307 96.4649 83.7307C96.203 83.7307 95.8538 83.644 95.5919 83.5572C95.33 83.4704 95.0681 83.2969 94.8935 83.0366C94.7189 82.863 94.5443 82.6027 94.457 82.2557C94.3698 81.9086 94.2825 81.6483 94.2825 81.2145C94.2825 80.8674 94.3698 80.5203 94.457 80.1732C94.5443 79.9129 94.7189 79.6526 94.8935 79.3923C95.0681 79.2188 95.33 79.0453 95.5919 78.8717C95.8538 78.785 96.1157 78.6982 96.4649 78.6982C96.7268 78.6982 96.9887 78.785 97.3379 78.8717C97.5998 78.9585 97.8617 79.132 98.0363 79.3923C98.2109 79.5659 98.3855 79.8262 98.5601 80.1732C98.6474 80.4336 98.7347 80.7806 98.7347 81.2145C98.7347 81.6483 98.7347 81.9954 98.5601 82.2557Z" fill="#003087"/>
<path d="M107.901 81.7353C107.901 82.3426 107.727 82.7765 107.465 83.1235C107.116 83.4706 106.766 83.6441 106.243 83.6441C105.719 83.6441 105.37 83.4706 105.02 83.1235C104.759 82.7765 104.584 82.3426 104.584 81.7353V77.4836H102.838V82.2559C102.838 83.1235 103.1 83.8177 103.536 84.3383C103.973 84.8589 104.671 85.1192 105.544 85.1192C106.155 85.1192 106.592 84.9457 106.941 84.6854C107.29 84.425 107.639 84.078 107.901 83.7309V85.0324H109.647V77.4836H107.901V81.7353Z" fill="#003087"/>
<path d="M116.806 81.3014C116.544 81.1279 116.369 80.9543 116.02 80.8676C115.758 80.7808 115.496 80.694 115.147 80.6073C114.885 80.5205 114.71 80.4337 114.536 80.4337C114.361 80.347 114.187 80.2602 114.012 80.1734C113.837 80.0867 113.75 79.9999 113.663 79.9131C113.576 79.8264 113.488 79.7396 113.488 79.5661C113.488 79.3058 113.576 79.1322 113.75 79.0455C113.925 78.8719 114.187 78.8719 114.536 78.8719C114.885 78.8719 115.234 78.9587 115.583 79.0455C115.933 79.1322 116.282 79.3058 116.718 79.5661L117.417 78.3513C116.98 78.091 116.544 77.9175 116.107 77.7439C115.583 77.5704 115.147 77.4836 114.623 77.4836C114.274 77.4836 113.925 77.5704 113.576 77.6572C113.226 77.7439 112.964 77.9175 112.703 78.091C112.441 78.2645 112.266 78.5249 112.091 78.7852C111.917 79.0455 111.917 79.3925 111.917 79.7396C111.917 80.0867 112.004 80.4337 112.091 80.6073C112.266 80.8676 112.441 81.0411 112.615 81.2146C112.877 81.3882 113.139 81.4749 113.401 81.6485C113.663 81.7353 113.925 81.822 114.274 81.9088C114.536 81.9956 114.71 82.0823 114.885 82.0823C115.06 82.1691 115.234 82.2559 115.409 82.2559C115.583 82.3426 115.671 82.4294 115.758 82.5162C115.845 82.6029 115.933 82.7765 115.933 82.8632C115.933 83.1235 115.845 83.2971 115.583 83.4706C115.409 83.6441 115.06 83.7309 114.71 83.7309C114.274 83.7309 113.925 83.6441 113.488 83.4706C113.052 83.2971 112.615 83.1235 112.266 82.7765L111.48 83.9912C112.004 84.3383 112.441 84.6854 113.052 84.8589C113.576 85.0324 114.187 85.1192 114.71 85.1192C115.147 85.1192 115.496 85.0324 115.845 84.9457C116.194 84.8589 116.456 84.6854 116.718 84.5118C116.98 84.3383 117.155 84.078 117.329 83.7309C117.504 83.4706 117.504 83.1235 117.504 82.6897C117.504 82.3426 117.417 82.0823 117.329 81.822C117.242 81.6485 116.98 81.4749 116.806 81.3014Z" fill="#003087"/>
<path d="M121.694 75.4011H119.948V77.4835H118.988V78.9586H119.948V82.9499C119.948 83.3837 120.036 83.7308 120.123 83.9911C120.21 84.2514 120.385 84.5117 120.56 84.6853C120.734 84.8588 120.996 84.9456 121.258 85.0323C121.52 85.1191 121.782 85.1191 122.131 85.1191C122.48 85.1191 122.742 85.1191 123.004 85.0323C123.266 84.9456 123.528 84.8588 123.702 84.772V83.3837C123.353 83.5573 123.004 83.644 122.655 83.644C122.393 83.644 122.131 83.5573 121.956 83.3837C121.782 83.2102 121.694 83.0367 121.694 82.6896V78.9586H123.702V77.4835H121.694V75.4011Z" fill="#003087"/>
<path d="M127.456 79.2189V77.4835H125.71V85.0323H127.456V82.1689C127.456 81.6483 127.543 81.2145 127.631 80.8674C127.718 80.5204 127.893 80.1733 128.154 79.913C128.416 79.6527 128.678 79.4792 128.94 79.3924C129.202 79.3056 129.639 79.2189 129.988 79.2189H130.075V77.3967C129.377 77.3967 128.853 77.4835 128.416 77.8306C128.067 78.1776 127.718 78.6115 127.456 79.2189Z" fill="#003087"/>
<path d="M133.742 74.7068H131.821V76.3554H133.742V74.7068Z" fill="#003087"/>
<path d="M133.654 77.4836H131.908V85.0324H133.654V77.4836Z" fill="#003087"/>
<path d="M142.122 78.6115C141.86 78.2644 141.424 77.9173 140.987 77.7438C140.551 77.4835 140.027 77.3967 139.416 77.3967C138.892 77.3967 138.368 77.4835 137.932 77.7438C137.495 77.9173 137.059 78.2644 136.797 78.6115C136.448 78.9585 136.186 79.3924 136.011 79.8262C135.836 80.3468 135.749 80.7807 135.749 81.388C135.749 81.9954 135.836 82.516 136.011 83.0366C136.186 83.5572 136.448 83.9043 136.797 84.2514C137.146 84.5984 137.582 84.8587 138.019 85.0323C138.455 85.2058 138.979 85.2926 139.59 85.2926C140.289 85.2926 140.9 85.2058 141.424 84.9455C141.947 84.6852 142.384 84.3381 142.733 83.9043L141.685 83.0366C141.336 83.2969 141.074 83.5572 140.725 83.7308C140.376 83.9043 140.027 83.9911 139.59 83.9911C139.066 83.9911 138.543 83.8175 138.194 83.4705C137.757 83.1234 137.582 82.6896 137.408 82.0822H142.995C142.995 81.9954 142.995 81.9087 142.995 81.8219C142.995 81.7351 142.995 81.6483 142.995 81.5616C142.995 81.041 142.908 80.5204 142.733 79.9998C142.646 79.3924 142.471 78.9585 142.122 78.6115ZM137.408 80.7807C137.495 80.1733 137.67 79.7395 138.019 79.3056C138.368 78.9585 138.805 78.785 139.328 78.785C139.59 78.785 139.852 78.8718 140.114 78.9585C140.376 79.0453 140.551 79.2189 140.725 79.3924C140.9 79.5659 140.987 79.7395 141.074 79.9998C141.162 80.2601 141.249 80.5204 141.249 80.7807H137.408Z" fill="#003087"/>
<path d="M149.717 81.3014C149.455 81.1279 149.281 80.9543 148.932 80.8676C148.67 80.7808 148.408 80.694 148.059 80.6073C147.797 80.5205 147.622 80.4337 147.447 80.4337C147.273 80.347 147.098 80.2602 146.924 80.1734C146.749 80.0867 146.662 79.9999 146.574 79.9131C146.487 79.8264 146.4 79.7396 146.4 79.5661C146.4 79.3058 146.487 79.1322 146.662 79.0455C146.836 78.8719 147.098 78.8719 147.447 78.8719C147.797 78.8719 148.146 78.9587 148.495 79.0455C148.844 79.1322 149.281 79.3058 149.63 79.5661L150.328 78.3513C149.892 78.091 149.455 77.9175 149.019 77.7439C148.495 77.5704 148.059 77.4836 147.535 77.4836C147.186 77.4836 146.836 77.5704 146.487 77.6572C146.138 77.7439 145.876 77.9175 145.614 78.091C145.352 78.2645 145.178 78.5249 145.003 78.7852C144.828 79.0455 144.828 79.3925 144.828 79.7396C144.828 80.0867 144.916 80.4337 145.003 80.6073C145.178 80.8676 145.352 81.0411 145.527 81.2146C145.789 81.3882 146.051 81.4749 146.313 81.6485C146.574 81.7353 146.836 81.822 147.186 81.9088C147.447 81.9956 147.622 82.0823 147.797 82.0823C147.971 82.1691 148.146 82.2559 148.32 82.2559C148.495 82.3426 148.582 82.4294 148.67 82.5162C148.757 82.6029 148.844 82.7765 148.844 82.8632C148.844 83.1235 148.757 83.2971 148.495 83.4706C148.233 83.6441 147.971 83.7309 147.622 83.7309C147.186 83.7309 146.836 83.6441 146.4 83.4706C145.963 83.2971 145.527 83.1235 145.178 82.7765L144.392 83.9912C144.916 84.3383 145.352 84.6854 145.963 84.8589C146.487 85.0324 147.098 85.1192 147.622 85.1192C147.971 85.1192 148.408 85.0324 148.757 84.9457C149.106 84.8589 149.368 84.6854 149.63 84.5118C149.892 84.3383 150.066 84.078 150.241 83.7309C150.416 83.4706 150.416 83.1235 150.416 82.6897C150.416 82.3426 150.328 82.0823 150.241 81.822C150.066 81.6485 149.892 81.4749 149.717 81.3014Z" fill="#003087"/>
<path d="M162.725 80.2598C162.463 79.9995 162.114 79.826 161.677 79.6524C161.241 79.4789 160.804 79.3054 160.28 79.2186C159.757 79.1318 159.407 78.9583 159.058 78.8715C158.709 78.7848 158.534 78.6112 158.36 78.5245C158.185 78.4377 158.098 78.2642 158.011 78.0906C157.923 77.9171 157.923 77.7436 157.923 77.57C157.923 77.223 158.098 76.9627 158.36 76.7023C158.622 76.442 159.058 76.3553 159.582 76.3553C160.018 76.3553 160.455 76.442 160.979 76.6156C161.415 76.7891 161.852 77.0494 162.376 77.3965L163.336 76.095C162.812 75.6611 162.288 75.4008 161.677 75.1405C161.066 74.967 160.455 74.7935 159.669 74.7935C159.145 74.7935 158.709 74.8802 158.272 74.967C157.836 75.1405 157.487 75.3141 157.225 75.5744C156.963 75.8347 156.701 76.1817 156.527 76.5288C156.352 76.8759 156.265 77.3097 156.265 77.7436C156.265 78.1774 156.352 78.6112 156.527 78.9583C156.701 79.3054 156.876 79.5657 157.138 79.826C157.399 80.0863 157.749 80.2598 158.185 80.4334C158.622 80.6069 159.058 80.6937 159.582 80.8672C160.018 80.954 160.455 81.1275 160.717 81.2143C160.979 81.301 161.241 81.3878 161.415 81.5613C161.59 81.6481 161.677 81.8216 161.764 81.9952C161.852 82.1687 161.852 82.3422 161.852 82.5158C161.852 82.9496 161.677 83.2099 161.328 83.4702C160.979 83.7305 160.542 83.8173 160.018 83.8173C159.407 83.8173 158.796 83.7305 158.36 83.4702C157.836 83.2099 157.399 82.9496 156.876 82.5158L155.828 83.8173C156.439 84.3379 157.05 84.7717 157.836 85.032C158.534 85.2923 159.32 85.4659 160.106 85.4659C160.63 85.4659 161.153 85.3791 161.59 85.2923C162.026 85.1188 162.376 84.9453 162.725 84.685C163.074 84.4247 163.249 84.0776 163.423 83.7305C163.598 83.3835 163.685 82.9496 163.685 82.429C163.685 81.9952 163.598 81.6481 163.51 81.301C163.249 80.7804 162.987 80.5201 162.725 80.2598Z" fill="#003087"/>
<path d="M170.756 81.7353C170.756 82.3426 170.581 82.7765 170.319 83.1235C169.97 83.4706 169.621 83.6441 169.097 83.6441C168.573 83.6441 168.224 83.4706 167.875 83.1235C167.613 82.7765 167.439 82.3426 167.439 81.7353V77.4836H165.693V82.2559C165.693 83.1235 165.955 83.8177 166.391 84.3383C166.828 84.8589 167.526 85.1192 168.399 85.1192C169.01 85.1192 169.446 84.9457 169.796 84.6854C170.145 84.425 170.494 84.078 170.756 83.7309V85.0324H172.502V77.4836H170.756V81.7353Z" fill="#003087"/>
<path d="M181.669 78.3511C181.319 78.0041 180.97 77.7438 180.534 77.5702C180.097 77.3967 179.661 77.3099 179.224 77.3099C178.613 77.3099 178.089 77.4834 177.653 77.7438C177.216 78.0041 176.867 78.3511 176.605 78.785V74.6201H174.859V85.0322H176.605V83.8175C176.867 84.1646 177.216 84.5116 177.653 84.7719C178.089 85.0322 178.613 85.2058 179.224 85.2058C179.661 85.2058 180.097 85.119 180.534 84.9455C180.97 84.7719 181.319 84.5116 181.669 84.1646C182.018 83.8175 182.28 83.3836 182.454 82.9498C182.629 82.4292 182.716 81.9086 182.716 81.3012C182.716 80.6938 182.629 80.0865 182.454 79.6526C182.28 79.132 182.018 78.6982 181.669 78.3511ZM180.883 82.2557C180.796 82.516 180.621 82.7763 180.446 83.0366C180.272 83.2101 180.01 83.3836 179.748 83.5572C179.486 83.644 179.224 83.7307 178.875 83.7307C178.613 83.7307 178.264 83.644 178.002 83.5572C177.74 83.4704 177.478 83.2969 177.304 83.0366C177.129 82.863 176.955 82.6027 176.78 82.2557C176.693 81.9954 176.605 81.6483 176.605 81.2145C176.605 80.8674 176.693 80.5203 176.78 80.1732C176.867 79.9129 177.042 79.6526 177.304 79.3923C177.478 79.2188 177.74 79.0453 178.002 78.8717C178.264 78.785 178.526 78.6982 178.875 78.6982C179.137 78.6982 179.486 78.785 179.748 78.8717C180.01 78.9585 180.272 79.132 180.446 79.3923C180.621 79.5659 180.796 79.8262 180.883 80.1732C180.97 80.4335 181.058 80.7806 181.058 81.2145C181.058 81.6483 180.97 81.9954 180.883 82.2557Z" fill="#003087"/>
<path d="M189.438 81.3014C189.176 81.1279 189.001 80.9543 188.652 80.8676C188.39 80.7808 188.128 80.694 187.779 80.6073C187.517 80.5205 187.343 80.4337 187.168 80.4337C186.993 80.347 186.819 80.2602 186.644 80.1734C186.47 80.0867 186.382 79.9999 186.295 79.9131C186.208 79.8264 186.12 79.7396 186.12 79.5661C186.12 79.3058 186.208 79.1322 186.382 79.0455C186.557 78.8719 186.819 78.8719 187.168 78.8719C187.517 78.8719 187.866 78.9587 188.216 79.0455C188.565 79.1322 189.001 79.3058 189.35 79.5661L190.049 78.3513C189.612 78.091 189.176 77.9175 188.739 77.7439C188.216 77.5704 187.779 77.4836 187.255 77.4836C186.906 77.4836 186.557 77.5704 186.208 77.6572C185.859 77.7439 185.597 77.9175 185.335 78.091C185.073 78.2645 184.898 78.5249 184.724 78.7852C184.549 79.0455 184.549 79.3925 184.549 79.7396C184.549 80.0867 184.636 80.4337 184.724 80.6073C184.898 80.8676 185.073 81.0411 185.247 81.2146C185.509 81.3882 185.771 81.4749 186.033 81.6485C186.295 81.7353 186.557 81.822 186.906 81.9088C187.168 81.9956 187.343 82.0823 187.517 82.0823C187.692 82.1691 187.866 82.2559 188.041 82.2559C188.216 82.3426 188.303 82.4294 188.39 82.5162C188.477 82.6029 188.565 82.7765 188.565 82.8632C188.565 83.1235 188.477 83.2971 188.216 83.4706C187.954 83.6441 187.692 83.7309 187.343 83.7309C186.906 83.7309 186.557 83.6441 186.12 83.4706C185.684 83.2971 185.247 83.1235 184.898 82.7765L184.113 83.9912C184.636 84.3383 185.073 84.6854 185.684 84.8589C186.208 85.0324 186.819 85.1192 187.343 85.1192C187.779 85.1192 188.128 85.0324 188.477 84.9457C188.827 84.8589 189.089 84.6854 189.35 84.5118C189.612 84.3383 189.787 84.078 189.962 83.7309C190.136 83.4706 190.136 83.1235 190.136 82.6897C190.136 82.3426 190.049 82.0823 189.962 81.822C189.874 81.6485 189.612 81.4749 189.438 81.3014Z" fill="#003087"/>
<path d="M194.152 74.7068H192.232V76.3554H194.152V74.7068Z" fill="#003087"/>
<path d="M193.978 77.4836H192.232V85.0324H193.978V77.4836Z" fill="#003087"/>
<path d="M202.271 78.6982C202.009 78.3511 201.66 78.0041 201.223 77.7438C200.787 77.4834 200.263 77.3099 199.652 77.3099C199.216 77.3099 198.779 77.3967 198.343 77.5702C197.906 77.7438 197.557 78.0041 197.208 78.3511C196.859 78.6982 196.597 79.132 196.422 79.5659C196.247 80.0865 196.16 80.6071 196.16 81.2145C196.16 81.8218 196.247 82.4292 196.422 82.863C196.597 83.3836 196.859 83.7307 197.208 84.0778C197.557 84.4249 197.906 84.6852 198.343 84.8587C198.779 85.0322 199.216 85.119 199.652 85.119C200.263 85.119 200.787 84.9455 201.223 84.6852C201.66 84.4249 202.009 84.0778 202.271 83.644V85.0322H204.017V74.6201H202.271V78.6982ZM202.096 82.2557C202.009 82.516 201.835 82.7763 201.573 83.0366C201.398 83.2101 201.136 83.3837 200.874 83.5572C200.612 83.644 200.35 83.7307 200.001 83.7307C199.739 83.7307 199.39 83.644 199.128 83.5572C198.866 83.4704 198.605 83.2969 198.43 83.0366C198.255 82.863 198.081 82.6027 197.993 82.2557C197.906 81.9954 197.819 81.6483 197.819 81.2145C197.819 80.8674 197.906 80.5203 197.993 80.1732C198.081 79.9129 198.255 79.6526 198.43 79.3923C198.605 79.2188 198.866 79.0453 199.128 78.8717C199.39 78.785 199.652 78.6982 200.001 78.6982C200.263 78.6982 200.525 78.785 200.874 78.8717C201.136 78.9585 201.398 79.132 201.573 79.3923C201.747 79.5659 201.922 79.8262 202.096 80.1732C202.184 80.4336 202.271 80.7806 202.271 81.2145C202.271 81.6483 202.184 81.9954 202.096 82.2557Z" fill="#003087"/>
<path d="M208.294 74.7068H206.374V76.3554H208.294V74.7068Z" fill="#003087"/>
<path d="M208.207 77.4836H206.461V85.0324H208.207V77.4836Z" fill="#003087"/>
<path d="M213.794 77.3967C213.183 77.3967 212.659 77.4835 212.223 77.5703C211.786 77.657 211.35 77.8306 210.913 78.0041L211.35 79.3924C211.699 79.2189 212.048 79.1321 212.397 79.0453C212.747 78.9585 213.096 78.9585 213.532 78.9585C214.143 78.9585 214.58 79.1321 214.929 79.3924C215.278 79.6527 215.453 80.0865 215.453 80.6071V80.7807C215.191 80.6939 214.842 80.6071 214.493 80.5204C214.143 80.4336 213.794 80.4336 213.358 80.4336C212.921 80.4336 212.485 80.5204 212.136 80.6071C211.786 80.6939 211.437 80.8674 211.175 81.041C210.913 81.2145 210.651 81.4748 210.564 81.8219C210.39 82.169 210.302 82.516 210.302 82.8631C210.302 83.2102 210.39 83.5572 210.564 83.9043C210.739 84.1646 210.913 84.4249 211.175 84.5984C211.437 84.772 211.699 84.9455 212.048 85.0323C212.397 85.1191 212.747 85.2058 213.096 85.2058C213.707 85.2058 214.143 85.1191 214.58 84.8587C215.016 84.6852 215.278 84.4249 215.54 84.0778V85.0323H217.286V80.5204C217.286 79.4792 217.024 78.6982 216.5 78.1776C215.715 77.657 214.929 77.3967 213.794 77.3967ZM215.453 82.3425C215.453 82.6028 215.366 82.7763 215.278 82.9499C215.191 83.1234 215.016 83.2969 214.842 83.4705C214.667 83.644 214.405 83.7308 214.231 83.8175C213.969 83.9043 213.707 83.9043 213.445 83.9043C213.009 83.9043 212.659 83.8175 212.397 83.644C212.136 83.4705 211.961 83.2102 211.961 82.7763C211.961 82.3425 212.136 82.0822 212.397 81.9086C212.747 81.7351 213.096 81.5616 213.707 81.5616C214.056 81.5616 214.318 81.5616 214.667 81.6483C214.929 81.7351 215.191 81.7351 215.453 81.8219V82.3425Z" fill="#003087"/>
<path d="M221.215 79.2189V77.4835H219.469V85.0323H221.215V82.1689C221.215 81.6483 221.302 81.2145 221.389 80.8674C221.477 80.5204 221.651 80.1733 221.913 79.913C222.175 79.6527 222.437 79.4792 222.699 79.3924C223.048 79.3056 223.397 79.2189 223.746 79.2189H223.834V77.3967C223.135 77.3967 222.612 77.4835 222.175 77.8306C221.826 78.1776 221.477 78.6115 221.215 79.2189Z" fill="#003087"/>
<path d="M229.246 83.1235L227.064 77.4836H225.23L228.373 85.0324C228.199 85.3795 228.111 85.553 227.937 85.7266C227.762 85.8133 227.588 85.9001 227.326 85.9001C227.151 85.9001 226.976 85.9001 226.802 85.8133C226.627 85.7266 226.453 85.7266 226.278 85.6398L225.667 86.9413C225.929 87.1148 226.191 87.2016 226.453 87.2884C226.715 87.3751 227.064 87.3751 227.413 87.3751C227.762 87.3751 228.024 87.3751 228.199 87.2884C228.461 87.2016 228.635 87.1148 228.897 86.9413C229.072 86.7678 229.246 86.5942 229.421 86.3339C229.595 86.0736 229.77 85.7266 229.857 85.3795L232.913 77.6572H231.079L229.246 83.1235Z" fill="#003087"/>
</svg>
