<svg width="718" height="211" viewBox="0 0 718 211" fill="none" xmlns="http://www.w3.org/2000/svg">
<g clip-path="url(#clip0_0_422)">
<path d="M388.98 0L353.528 64.7577L318.023 0H219.259V46.0383H242.144V165.171H219.259V211H319.751V165.171H300.847V87.0952L338.76 151.905H368.243L406.156 87.0952V165.171H387.252V211H487.744V165.171H464.859V46.0383H487.744V0H388.98Z" fill="black"/>
<path d="M642.016 0V46.0907H656.26L631.228 79.5445L606.249 46.0907H620.441V0H514.241V46.0907H537.178L576.819 99.1029L527.542 164.857H514.241V210.948H590.225V164.857H576.034L601.013 131.456L626.044 164.857H611.8V210.948H718V164.857H695.116L655.474 111.897L704.699 46.0907H718V0H642.016Z" fill="black"/>
<path d="M36.1854 0L0 36.2328V174.715L36.2378 211H123.114L140.238 193.854V211H192.762V93.2826H115.94L99.2349 129.463H140.238V165.171H56.7655V46.0383H140.238V74.1436H192.762V0.104871L156.681 0H36.1854Z" fill="black"/>
</g>
<defs>
<clipPath id="clip0_0_422">
<rect width="718" height="211" fill="white"/>
</clipPath>
</defs>
</svg>
